<svg xmlns="http://www.w3.org/2000/svg" width="512" height="512" viewBox="0 0 135.467 135.467"><path d="M5.383 134.391c-2.58-.105-2.958-.243-3.812-1.387-.515-.69-.52-2.26-.012-3.128.765-1.302.95-1.333 7.936-1.333 5.873 0 6.277-.022 6.696-.36l.445-.361.094-24.872.094-24.872.569-.92c.414-.669.843-1.062 1.577-1.446l1.008-.526h7.829c5.395 0 8.055.068 8.558.218 1.001.3 2.123 1.308 2.533 2.276.318.752.337 1.558.288 12.212-.053 11.473-.015 12.278.605 12.673.123.078 2.53.143 5.348.145 4.266.002 5.171-.044 5.402-.275.24-.24.264-1.305.176-7.589l-.101-7.31-1.44-1.51c-3.744-3.922-7.11-9.546-8.773-14.654-3.185-9.785-2.445-20.956 1.97-29.745C47.937 30.55 58.033 23.038 70.3 20.846c3.165-.566 10.786-.616 14.086-.093 11.03 1.749 20.968 8.578 26.86 18.459 6.646 11.143 7.16 25.494 1.332 37.173-1.785 3.58-3.546 6.093-6.703 9.568l-1.88 2.07 1.1 1.244c.604.684 1.312 1.494 1.572 1.8.468.551.486.555 1.556.357 1.75-.323 3.6.131 5.164 1.268.43.313 4.206 4.365 8.39 9.005 11.002 12.2 11.369 12.622 11.966 13.801.486.96.543 1.263.543 2.873 0 1.709-.037 1.877-.723 3.265-.948 1.917-2.287 3.257-4.204 4.204-1.39.687-1.556.723-3.275.723-1.713 0-1.885-.038-3.214-.703-.772-.386-1.664-.938-1.98-1.225-.582-.528-6.206-6.69-10.363-11.353l-5.614-6.293c-1.845-2.067-3.532-4.106-3.749-4.53-.54-1.06-.664-2.857-.275-3.999l.306-.897-.644-.772a75 75 0 0 0-2.032-2.265l-1.389-1.493-1.233.69C91.672 96.085 86.453 97.594 81.1 98c-1.419.108-2.653.242-2.743.297-.09.056-.164 6.651-.164 14.71v14.61l.463.463.463.463h6.937c6.229 0 7.005.034 7.594.33.976.49 1.512 1.41 1.512 2.592 0 1.204-.522 2.061-1.592 2.614-.741.382-.876.384-43.27.397-23.39.007-43.603-.03-44.918-.085m27.664-6.311.463-.463-.003-22.68c-.001-12.475-.054-22.875-.118-23.113-.234-.875-.838-.982-5.534-.982-4.286 0-4.362.007-4.786.431-.431.431-.432.438-.557 8.139-.203 12.453-.155 37.482.072 38.136.11.313.385.659.613.77.254.122 2.15.204 4.9.212l4.487.013zm17.2.087c.566-.529.675-1.368.544-4.214-.062-1.364-.116-5.217-.119-8.56-.005-5.826-.02-6.097-.382-6.458-.357-.358-.628-.378-5.258-.378-4.524 0-4.914.027-5.326.36l-.445.361-.056 8.643c-.031 4.753-.006 8.918.056 9.256.061.337.293.783.515.99.382.355.668.376 5.235.376s4.853-.02 5.235-.376m21.64-.087.463-.463V113.01c0-12.24-.043-14.65-.263-14.87-.145-.144-1.014-.409-1.933-.588-4.081-.795-8.356-2.38-11.46-4.248-.879-.528-1.687-.961-1.795-.961-.137 0-.198 5.468-.198 17.663v17.664l.41.436.41.437h13.903zm9.518-36.88c3.796-.474 8.008-1.833 8.63-2.783.296-.45.324-2.09.372-21.256.055-22.335.069-21.974-.9-22.464-.343-.173-1.79-.239-5.3-.24-4.531-.003-4.86.02-5.305.37l-.475.373-.12 7.593c-.066 4.176-.14 14.45-.163 22.832-.043 14.894-.035 15.246.322 15.507.438.32.844.33 2.939.068m-9.42-.56c.355-.19.365-.533.365-12.888 0-13.127-.03-13.68-.772-14.077-.219-.117-3.011-.198-7.244-.21-6.369-.018-6.916.006-7.26.318-.362.327-.373.613-.372 9.688 0 10.653-.129 9.8 1.719 11.364 3.062 2.594 7.31 4.693 11.383 5.623 1.864.426 1.743.416 2.181.181m25.59-6.243c1.626-1.181 4.695-4.384 6.073-6.336 3.378-4.79 5.183-9.36 5.939-15.041 1.151-8.653-1.434-17.612-7.072-24.506-3.795-4.641-9.887-8.616-15.838-10.336-4.807-1.389-11.118-1.614-16.213-.578-3.74.76-8.369 2.788-11.69 5.121-2.267 1.593-5.934 5.258-7.59 7.585-1.694 2.38-3.93 6.911-4.653 9.427-2.54 8.832-1.305 18.502 3.33 26.078l.712 1.166.095-8.707c.09-8.422.106-8.723.483-9.227a5.4 5.4 0 0 1 .909-.909c.505-.377.794-.391 10.113-.483 7.513-.074 9.646-.147 9.838-.339.189-.189.266-1.943.339-7.73l.094-7.485.47-.92c.258-.505.767-1.165 1.13-1.467 1.296-1.073 1.786-1.122 10.683-1.062 7.928.054 8.094.063 8.86.473 1.042.556 2.09 1.815 2.41 2.892.217.73.243 4.373.156 22.02-.081 16.348-.054 21.145.12 21.145.125 0 .71-.351 1.302-.781m19.65-47.789c-.871-.786-1.244-1.786-1.05-2.817.184-.982.948-1.67 2.28-2.057.619-.179 3.33-1.05 6.026-1.937s5.242-1.647 5.657-1.69c2.697-.282 4.022 3.877 1.629 5.114-1.21.626-12.191 4.068-12.977 4.068-.668 0-.946-.12-1.566-.68m-6.673-10.444c-1.643-.51-2.45-2.434-1.666-3.973.396-.778 10.143-12.562 10.586-12.799 1.272-.68 3.095-.257 3.883.903.665.978.647 2.302-.043 3.22-1.922 2.558-9.994 12.144-10.405 12.356-.708.367-1.715.492-2.355.293m-12.138-7.54a3.7 3.7 0 0 1-1.004-.989c-.38-.6-.386-.763-.268-7.213.066-3.63.202-6.913.301-7.298.413-1.591 1.846-2.447 3.4-2.029.844.228 1.804 1.127 1.992 1.866.064.253.038 3.521-.059 7.263-.16 6.254-.205 6.856-.547 7.44-.737 1.254-2.574 1.717-3.815.96" style="fill:#000;stroke-width:.188541"/></svg>