<svg xmlns="http://www.w3.org/2000/svg" width="512" height="512" viewBox="0 0 135.467 135.467"><path d="M22.252 129.153c-10.366-.086-10.366-.086-11.737-.568-1.646-.579-3.268-1.44-4.523-2.403-2.067-1.584-4.032-4.587-4.849-7.406-.393-1.36-.393-1.36-.393-37.595s0-36.236.49-37.693c.893-2.645 2.026-4.479 3.827-6.192 1.796-1.71 3.753-2.78 6.286-3.437 1.387-.36 1.463-.36 36.683-.428 19.412-.037 35.716-.017 36.23.044.774.09 1.047.22 1.563.736.828.827 1.003 1.753.534 2.814-.506 1.143-1.162 1.52-2.923 1.678-.814.074-16.908.13-35.763.127-38.04-.008-35.036-.096-37.295 1.102-1.26.668-2.845 2.354-3.535 3.76-1.111 2.261-1.053.06-1.003 38.22.046 34.648.046 34.648.511 35.923 1.143 3.131 3.55 5.248 6.73 5.919 1.78.375 98.758.383 100.527.008 3.068-.65 5.497-2.685 6.697-5.612.369-.9.371-.994.457-16.612.085-15.602.088-15.71.444-16.19 1.28-1.727 3.67-1.665 4.567.12.278.553.3 1.663.3 15.722 0 16.425.007 16.287-.964 18.872-1.895 5.047-6.784 8.715-12.042 9.035-1.954.118-77.597.165-90.82.056m10.674-14.835c-.872-.32-1.954-1.337-2.486-2.334-.337-.63-.392-.98-.384-2.448.01-1.933.125-2.284 2.45-7.453 1.274-2.833 1.739-4.306 1.738-5.507-.001-.904-.504-1.8-1.148-2.045-1.434-.545-4.408.992-7.311 3.779-3.177 3.05-4.71 5.303-6.675 9.813-.357.82-1.175 1.325-2.144 1.326-.62 0-.844-.097-1.328-.582-.937-.937-.8-1.97.64-4.794 1.924-3.776 5.778-8.32 9.316-10.984 1.387-1.044 3.752-2.251 5.078-2.591 1.378-.354 3.378-.243 4.487.247 1.104.489 2.399 1.758 2.877 2.82.35.778.4 1.149.39 2.864-.014 2.371-.283 3.3-2.304 7.963-1.485 3.425-1.98 4.968-1.812 5.64.245.975 1.142.546 6.66-3.188 2.965-2.006 4.478-2.75 5.792-2.844 2.13-.154 3.566 1.503 3.583 4.133.005.803.262 1.317.657 1.317.164 0 .919-.52 1.677-1.157.759-.636 2.106-1.767 2.994-2.515 1.97-1.657 3.79-2.863 5.092-3.375.759-.299 1.342-.387 2.605-.395 1.466-.01 1.705.035 2.399.445 1.477.874 2.234 2.02 2.581 3.913.455 2.478.635 2.913 1.325 3.206.578.246.732.245 1.748-.009.612-.152 2.655-1.045 4.54-1.983 4.561-2.27 6.029-2.703 8.079-2.381 1.29.202 1.982.588 3.488 1.945.706.636 1.697 1.348 2.203 1.582.826.382 1.082.417 2.486.343 1.606-.084 1.63-.09 7.945-2.319 1.11-.391 1.317-.416 1.936-.23 1.173.35 1.768 1.93 1.092 2.895-.492.702-4.723 2.548-7.51 3.276-4.584 1.197-7.221.684-10.553-2.055-1.259-1.035-1.8-1.24-3.014-1.143-.93.075-1.551.328-4.894 1.998-2.886 1.442-4.144 1.978-5.113 2.179-3.156.654-5.775-.401-7.012-2.826-.19-.372-.514-1.538-.72-2.591-.55-2.814-.98-2.969-3.576-1.293-.977.63-1.884 1.352-5.885 4.68-.485.403-1.488 1.039-2.23 1.413-1.076.543-1.534.68-2.275.68-2.258 0-3.751-1.632-4.116-4.498-.173-1.352-.545-1.185-5.194 2.33-1.083.817-2.586 1.809-3.341 2.202-1.227.64-1.519.72-2.743.765-.924.034-1.606-.036-2.09-.214zm18.144-16.29c-1.375-.678-1.474-2.361-.297-5.039.7-1.59 2.992-7.864 4.658-12.75 1.567-4.593 2.235-5.833 4.21-7.809 1.318-1.32 2.598-2.16 5.894-3.868 3.121-1.617 4.18-2.319 5.294-3.508.474-.506 2.205-2.925 3.845-5.375 5.825-8.698 7.719-11.237 13.103-17.561 7.091-8.331 16.592-18.4 22.255-23.585 7.417-6.792 13.045-10.907 16.283-11.907 1.345-.415 3.543-.5 4.655-.178 1.603.462 3.06 1.916 3.542 3.535.359 1.203.234 3.432-.276 4.942-2.435 7.203-14.073 22.41-31.611 41.302-5.261 5.668-8.723 8.703-19.224 16.854-1.469 1.14-2.88 2.323-3.138 2.628-.622.74-1.454 2.418-2.473 4.988-2.42 6.105-4.217 8.024-10.05 10.726L62.1 94.03a307 307 0 0 0-6.144 2.93c-2.968 1.47-3.73 1.637-4.886 1.067m7.958-6.82c.198-.138 2.292-1.17 4.654-2.293 4.734-2.25 6.274-3.18 7.517-4.54 1.087-1.189 1.73-2.433 2.71-5.25.847-2.427 1.522-3.902 2.322-5.069.48-.699.48-.699-1.614-2.788-2.093-2.088-2.093-2.088-3.03-1.389-.514.385-2.246 1.36-3.848 2.168-4.254 2.143-5.696 3.27-6.813 5.321-.254.467-.926 2.198-1.493 3.846a148 148 0 0 1-1.784 4.908c-.415 1.052-.703 1.912-.64 1.912.263 0 5.676-5.673 6.327-6.63.928-1.367 1.447-1.765 2.302-1.765.544 0 .795.116 1.262.582.485.485.582.708.582 1.333 0 .862-.28 1.339-1.076 1.83-.612.38-8.129 8.076-7.886 8.076.082 0 .31-.113.508-.252m32.006-29.92c.342-.3.606-.692.606-.901 0-.249-.773-1.131-2.356-2.691-3.098-3.052-4.803-4.613-5.037-4.613-.304 0-1.345 1.192-1.345 1.539 0 .432 7.026 7.183 7.49 7.197.02.001.309-.238.642-.53m18.53 25.531c-.722-.567-.909-1.14-1.033-3.165-.191-3.139-.725-4.514-2.298-5.923-1.094-.98-2.05-1.309-4.514-1.55-2.209-.216-2.94-.502-3.23-1.265-.399-1.048-.072-2.165.758-2.594.284-.147 1.426-.367 2.538-.49 2.37-.26 3.593-.736 4.732-1.84 1.366-1.323 1.824-2.652 2.07-6.008.117-1.586.224-2.134.484-2.485.93-1.252 2.9-1.148 3.513.185.15.326.334 1.545.436 2.878.26 3.398.96 4.985 2.71 6.145 1.038.687 2.098.99 4.179 1.194 1.993.195 2.47.374 2.92 1.094.66 1.055.11 2.479-1.103 2.86-.293.092-1.32.243-2.281.335-2.277.218-3.513.753-4.67 2.02-1.132 1.237-1.513 2.325-1.72 4.912-.223 2.76-.267 2.926-.96 3.534-.741.651-1.823.72-2.532.163" style="fill:#000;stroke-width:.171329"/></svg>