<svg xmlns="http://www.w3.org/2000/svg" width="512" height="512" viewBox="0 0 135.467 135.467"><path d="M21.825 133.437c-.436-.247-.89-.717-1.163-1.205l-.448-.8-.09-8.412-.09-8.412-2.863-.108c-3.286-.124-4.588-.335-6.6-1.07-4.832-1.763-8.216-6.105-9.096-11.669-.185-1.165-.233-7.714-.233-31.451 0-28.312.018-30.069.326-31.586 1.23-6.053 5.015-10.055 10.95-11.582l1.61-.414h75.889l1.431.384c3.83 1.026 6.207 2.947 7.693 6.213.633 1.392.894 2.334 1.084 3.918l.124 1.029 12.911.003c10.809.002 13.095.046 14.043.27 3.358.79 5.647 2.996 6.594 6.35.312 1.106.328 2.592.328 30.605 0 27.838-.018 29.518-.326 30.83-.928 3.958-3.491 6.655-7.461 7.851-1.307.394-1.607.407-11.812.505-6.476.062-10.583.169-10.767.28-.163.098-2.418 2.196-5.011 4.663-9.171 8.722-10.718 10.122-11.674 10.567-1.578.735-2.943.498-3.988-.692-.868-.988-.955-1.785-.955-8.73v-6.256l-18.301.004c-17.67.004-18.327.016-19.06.348-.526.24-3.012 2.55-8.143 7.568-9.836 9.62-10.953 10.666-11.829 11.063-1.02.463-2.185.439-3.073-.064zm16.376-20.45c3.35-3.237 4.131-3.73 6.394-4.029.843-.111 4.84-.163 10.13-.13l8.738.052-.135-.447c-.223-.745-.29-61.286-.069-62.733.522-3.412 3.031-6.08 6.533-6.947 1.47-.364 5.223-.477 15.873-.48h9.072l-.093-.672c-.172-1.249-1.256-3.204-2.158-3.893-1.645-1.255 1.341-1.168-39.84-1.164-40.985.003-38.69-.058-40.982 1.1-2.856 1.441-4.253 3.806-4.613 7.806-.126 1.405-.169 11.58-.128 30.65.056 26.28.086 28.637.368 29.68.516 1.903 1.176 3.077 2.439 4.338 2.106 2.102 3.871 2.635 9.41 2.841 2.067.077 3.971.227 4.23.332.85.346 1.725 1.27 2.02 2.133.238.699.283 1.874.283 7.376v6.544l4.787-4.75a1057 1057 0 0 1 7.741-7.606zM36.305 99.95c-1.768-.433-3.398-1.898-3.852-3.462-.661-2.276-.09-4.43 1.579-5.956 1.21-1.105 2.428-1.512 4.156-1.388 1.477.106 2.413.574 3.446 1.723 1.756 1.952 1.871 4.913.279 7.133-1.194 1.665-3.5 2.466-5.608 1.95m-.225-15.983c-.33-.163-.813-.619-1.074-1.013-.455-.69-.473-.813-.466-3.146.009-2.819.35-4.32 1.495-6.596 1.387-2.755 3.379-4.985 7.129-7.983 3.729-2.98 5.391-5.058 6.04-7.545.712-2.735-.026-5.369-2.072-7.396-2.058-2.039-4.875-3.063-8.43-3.066-2.417-.001-3.438.21-5.305 1.102-2.727 1.302-4.308 3.342-5.573 7.187-.433 1.317-.742 1.93-1.23 2.443-1.442 1.514-3.83 1.322-5.11-.411-.546-.738-.515-3.437.06-5.31 1.873-6.11 6.942-10.196 14-11.287 2.268-.35 6.669-.133 8.83.436 6.186 1.629 10.512 6.112 11.653 12.074.325 1.699.317 2.767-.032 4.467-.847 4.119-2.976 7.179-7.86 11.297-5.56 4.687-6.808 6.543-7.241 10.763-.246 2.397-.671 3.32-1.79 3.885-.953.48-2.17.52-3.024.099m52.604 37.78c2.707-2.833 12.099-11.76 12.725-12.094l.778-.415 10.918-.108c7.747-.076 11.166-.171 11.77-.328 2.095-.541 3.344-2.08 3.715-4.575.124-.837.17-10.579.136-29.353l-.05-28.1-.394-.739c-.538-1.005-1.32-1.62-2.495-1.961-.893-.26-3.5-.276-27.596-.17-29.185.128-27.62.063-28.566 1.188-.245.291-.53.829-.63 1.195-.258.925-.258 59.292 0 60.216.222.804.908 1.654 1.668 2.07.494.27 1.405.318 7.63.401 7.28.097 7.668.136 8.482.858.186.166.487.623.668 1.017.295.644.329 1.26.332 6.13.002 2.978.069 5.414.148 5.414.08 0 .422-.29.76-.645m1.333-20.959c-1.083-.282-2.047-1.644-2.055-2.903-.005-.87.602-2.017 1.29-2.432.452-.274 1.024-.375 2.507-.445 1.802-.085 1.951-.121 2.416-.586l.495-.495v-18.06l-.496-.497c-.482-.482-.566-.499-2.896-.586-2.058-.077-2.47-.142-2.893-.458-.939-.701-1.205-1.236-1.219-2.446-.016-1.414.466-2.275 1.571-2.81.716-.347 1.077-.371 5.548-.371 3.918 0 4.902.05 5.447.278.911.38 1.618 1.099 1.829 1.86.108.387.177 4.964.178 11.697 0 12.052-.01 11.918 1.005 12.304.248.094 1.078.171 1.845.171 1.15 0 1.5.07 2.002.406 1.678 1.122 1.605 3.901-.132 4.98l-.692.431-7.696.028c-4.233.015-7.858-.015-8.054-.066m6.15-37.55c-5.29-1.695-5.749-9.023-.72-11.492.88-.432 1.225-.498 2.624-.498s1.743.065 2.629.5c1.32.648 2.693 2.14 3.123 3.391.423 1.23.422 3.161-.002 4.395-.44 1.279-1.943 2.897-3.198 3.443-1.194.52-3.272.641-4.456.262m4.4-37.746c-1.17-.51-1.866-1.89-1.619-3.209.073-.39 1.204-2.04 3.28-4.787 6.652-8.804 6.469-8.607 8.013-8.607 2.018 0 3.413 2.114 2.522 3.821-.138.265-2.271 3.169-4.74 6.455-4.716 6.275-5.018 6.587-6.334 6.571a3.5 3.5 0 0 1-1.121-.244m-28.485-3.679c-.315-.192-.707-.61-.872-.929-.165-.318-1.505-3.926-2.979-8.017-2.91-8.082-2.96-8.301-2.118-9.483.53-.744 1.326-1.129 2.336-1.129.962 0 1.843.399 2.248 1.018.383.584.654 1.313 3.32 8.924 2.452 7 2.591 7.62 1.95 8.67-.763 1.253-2.634 1.709-3.885.946m13.988-.259c-.773-.337-1.509-1.275-1.531-1.955-.045-1.341.034-1.835 1.646-10.232 1.143-5.954 1.26-6.36 2.034-7.04 1.776-1.56 4.572-.316 4.572 2.034 0 1.16-2.947 15.75-3.286 16.267-.648.99-2.28 1.43-3.435.926" style="fill:#000;stroke-width:.178982"/></svg>