<svg xmlns="http://www.w3.org/2000/svg" width="512" height="512" viewBox="0 0 135.467 135.467"><path d="M128.26 132.266c-.444-.09-1.218-.387-1.719-.66-.857-.466-5.53-5.067-15.978-15.731-2.388-2.438-3.504-3.45-3.802-3.45-.233 0-1.058.29-1.834.643-5.938 2.706-13.395 3.451-19.997 1.998-3.486-.768-7.379-2.412-10.237-4.323-.793-.53-1.582-.965-1.753-.965-.172 0-1.308.838-2.525 1.86-5.357 4.502-11.901 8.708-15.352 9.867-1.52.51-3.188.426-4.838-.245-2.83-1.15-10.79-6.133-15.577-9.75-10.176-7.688-18.553-17.53-23.917-28.101-3.63-7.153-5.927-13.997-7.74-23.062C1.133 51.063.406 43.27.364 32.18c-.025-6.376-.022-6.436.43-7.555.512-1.273 1.946-2.848 3.154-3.464.41-.21 1.467-.517 2.35-.683.88-.166 3.006-.563 4.721-.882 10.89-2.023 20.863-5.332 29.077-9.647C43 8.424 47.651 5.726 49.288 4.617c1.57-1.063 2.795-1.495 4.295-1.514 1.518-.02 2.329.361 7.718 3.633 11.025 6.691 21.972 10.581 37.59 13.356 4.092.727 4.987 1.082 6.29 2.496.421.457.992 1.314 1.269 1.904.484 1.034.505 1.214.567 4.948.113 6.856-.512 15.07-1.697 22.288-.28 1.702-.333 2.462-.193 2.768.109.24.837.766 1.68 1.215 3.259 1.737 7.285 5.08 9.57 7.944 3.613 4.532 5.757 9.124 6.78 14.521.603 3.183.605 8.683.004 11.66-1.006 4.98-3.158 9.685-6.11 13.365-.57.71-.93 1.345-.93 1.642 0 .387 1.807 2.294 8.97 9.468 10.118 10.136 10.03 10.025 10.02 12.575-.009 1.676-.52 2.793-1.808 3.952-1.34 1.205-3.34 1.771-5.042 1.428zM55.426 113.72c1.683-.92 5.151-3.119 6.633-4.206 2.441-1.79 5.066-4.118 5.152-4.568.067-.353-.171-.786-1.01-1.832-3.113-3.887-5.295-8.871-6.152-14.052-.503-3.045-.463-8.141.087-11.095 1.595-8.554 6.345-15.693 13.737-20.649 5.577-3.738 11.72-5.437 18.525-5.123 1.456.067 3.327.248 4.159.4 1.436.265 1.527.26 1.81-.076.855-1.022 2.531-23.01 1.874-24.596-.301-.728-.915-1.045-2.36-1.218-2.37-.283-8.265-1.44-11.626-2.282-10.043-2.514-18.833-6.255-28.5-12.13-2.11-1.283-3.512-2.014-3.969-2.072-.638-.081-1.11.151-4.865 2.389C36.774 19.851 25 24.135 10.756 26.499c-3.12.518-3.6.764-3.824 1.957-.304 1.62.6 16.618 1.35 22.384 1.553 11.944 4.878 22.87 9.536 31.34 6.562 11.93 16.07 21.44 29.486 29.491 3.214 1.929 5.112 2.833 5.946 2.833.513 0 1.184-.241 2.175-.783m-9.624-45.38c-.49-.155-2.617-2.156-8.173-7.685-4.196-4.177-7.648-7.764-7.821-8.13-.347-.731-.378-2.153-.065-2.979.677-1.787 2.983-2.643 4.812-1.786.49.23 2.78 2.386 6.52 6.14 3.17 3.18 5.893 5.784 6.05 5.784.156 0 5.771-5.492 12.477-12.205 6.705-6.713 12.503-12.368 12.883-12.566 1.903-.992 4.082-.404 4.986 1.344.383.74.354 2.407-.054 3.136-.515.921-27.634 28.202-28.462 28.632-.883.46-2.266.598-3.153.316m48.003 40.288c3.349-.313 6.108-1.089 8.99-2.527 10.022-5 15.22-14.844 13.6-25.752-.844-5.687-2.99-9.99-6.97-13.97-5.053-5.056-10.879-7.501-17.877-7.503-5.297-.002-9.717 1.308-14.083 4.172-1.772 1.163-5.441 4.869-6.682 6.75-1.839 2.787-3.046 5.681-3.746 8.978-.477 2.251-.478 7.575 0 9.83 2.308 10.91 10.974 18.901 21.725 20.031 2.039.215 2.673.213 5.043-.009zM85.02 94.658c-.45-.224-2.462-2.087-4.946-4.584-4.559-4.584-4.782-4.913-4.49-6.639.227-1.346 1.861-2.586 3.391-2.573.909.007 2.016.838 4.629 3.472 1.506 1.518 2.88 2.76 3.054 2.76s3.779-3.525 8.01-7.833c4.915-5.003 7.902-7.906 8.269-8.034 1.509-.526 3.33.106 4.058 1.407.456.815.565 2.169.244 3.015-.296.779-18.108 18.615-19.001 19.028-.992.458-2.27.45-3.218-.02M8.983 118.366c-4.178-2.083-2.648-8.274 2.05-8.298 1.061-.006 1.38.078 2.17.566 3.045 1.883 2.83 6.275-.38 7.77-1.298.605-2.575.592-3.84-.038m109.98-84.058c-1.922-.986-2.045-3.817-.208-4.767.315-.163 1.986-.731 3.714-1.262 2.844-.875 3.209-.947 3.852-.754 1.477.443 2.36 2.1 1.894 3.553-.453 1.414-1.113 1.81-4.97 2.979-2.61.79-3.165.823-4.282.25m-5.591-10.516c-1.21-.55-1.782-1.73-1.519-3.133.087-.464 1.11-1.949 3.354-4.875 4.06-5.292 4.39-5.637 5.494-5.762 1.737-.196 3 .923 3.13 2.77.086 1.22.313.849-3.708 6.062-3.03 3.928-3.709 4.684-4.516 5.032-.805.346-1.314.324-2.235-.094m-11.862-6.845c-.918-.484-1.455-1.366-1.456-2.388-.001-1.385 1.125-7.848 1.47-8.437 1.088-1.858 3.888-1.816 4.864.073.379.731.354 1.795-.1 4.258-.21 1.138-.47 2.62-.578 3.294-.306 1.91-.74 2.713-1.724 3.189-1.029.498-1.549.5-2.476.01" style="fill:#000;stroke-width:.189031"/></svg>