<svg xmlns="http://www.w3.org/2000/svg" width="512" height="512" viewBox="0 0 135.467 135.467"><path d="M9.885 133.445c-4.35-1.053-8.19-5.106-8.902-9.396C.816 123.042.77 109.6.811 73.548c.056-49.13.056-49.13.532-50.328.957-2.409 2.618-4.278 4.77-5.369 2.358-1.194-.767-1.122 48.17-1.119 49.894.004 45.958-.108 49.037 1.391 3.95 1.925 7.085 5.52 8.624 9.89.562 1.598.562 1.598.615 48.389.046 40.962.015 46.951-.247 48.08-.974 4.203-4.734 7.987-8.913 8.972-1.865.44-91.697.431-93.514-.009zm93.18-6.936c1.319-.647 2.374-1.782 2.89-3.106.343-.88.363-3.102.417-45.861.04-32.136-.006-45.305-.164-46.234-.51-2.996-2.815-6.003-5.68-7.405-1.394-.683-1.394-.683-45.858-.735s-44.464-.051-45.537.51c-.904.471-1.168.746-1.674 1.735-.6 1.174-.6 1.174-.6 49.02 0 47.845 0 47.845.431 48.778.817 1.769 2.646 3.351 4.361 3.773.33.081 20.776.134 45.435.117 44.836-.03 44.836-.03 45.979-.592m-81.55-9c-2.672-.955-4.344-3.863-3.78-6.576.452-2.18 2.116-3.863 4.398-4.447 2.116-.543 4.207.1 5.687 1.745 3.355 3.731.733 9.569-4.286 9.542-.714-.004-1.623-.122-2.02-.264m14.416-4.668c-1.12-.571-1.512-1.284-1.512-2.746 0-1.371.302-1.982 1.375-2.783.55-.411.613-.412 29.549-.464 28.997-.052 28.997-.052 29.88.4 1.306.666 1.706 1.326 1.706 2.812 0 .956-.1 1.374-.446 1.858-.974 1.366 1.295 1.273-30.84 1.272-27.24 0-29.07-.021-29.712-.35M19.147 97.898c-.916-.4-1.367-.827-1.83-1.733-.366-.719-.38-1.284-.327-14.095.054-13.347.054-13.347.592-14.052 1.092-1.432.18-1.36 17.323-1.36 12.558 0 15.524.05 16.056.272.824.345 1.658 1.327 1.937 2.283.148.506.197 4.774.155 13.522-.059 12.364-.074 12.803-.46 13.459-.22.373-.745.957-1.167 1.298-.768.62-.768.62-16.177.664-13.392.039-15.5.005-16.102-.258m45.029-.063c-.913-.421-1.528-1.054-1.87-1.921-.175-.446-.222-3.998-.181-13.795.054-13.194.054-13.194.55-13.918.272-.398.824-.908 1.225-1.133.718-.404.972-.41 15.538-.41 12.13 0 14.924.05 15.45.275.777.332 1.64 1.22 1.928 1.984.142.376.213 4.826.213 13.437 0 11.135-.042 12.975-.307 13.61-.414.99-.84 1.436-1.79 1.873-.752.345-1.654.366-15.378.366-13.753 0-14.624-.02-15.378-.368M19.018 59.486c-.452-.206-1.082-.714-1.398-1.129-.576-.755-.576-.755-.635-11.256-.033-5.775-.007-10.79.058-11.143.156-.86 1.001-1.828 1.99-2.277.773-.351 2.348-.367 38.011-.371 36.118-.004 37.226.007 37.946.374.915.467 1.335.92 1.732 1.87.263.63.306 2.214.302 11.076-.005 11.77.032 11.487-1.613 12.575-.85.563-.85.563-38.21.609-36.148.045-37.388.034-38.183-.328m103.665-29.548c-1.682-1.026-1.926-3.283-.484-4.495.741-.624 8.77-3.321 9.885-3.321 1.253 0 2.123.722 2.503 2.077.282 1.002-.184 2.327-1.03 2.929-.785.559-8.67 3.182-9.562 3.181-.387 0-.977-.167-1.312-.371m-6.478-9.564c-1.002-.503-1.602-1.499-1.602-2.657 0-1.078.017-1.105 4.75-7.777 1.576-2.222 3.048-4.087 3.43-4.344 1.376-.928 3.517-.384 4.115 1.046.434 1.038.357 1.94-.24 2.82-5.146 7.586-7.14 10.332-7.848 10.81-.804.541-1.663.575-2.605.102M105.8 14.943c-.897-.276-1.513-.794-1.863-1.57-.293-.65-.33-1.369-.278-5.373.057-4.325.088-4.66.479-5.186 1.215-1.641 3.936-1.455 4.91.335.348.64.375 1.09.322 5.328-.054 4.315-.086 4.667-.47 5.18-.837 1.121-2.028 1.615-3.1 1.286" style="fill:#000;stroke-width:.199713"/></svg>