<svg xmlns="http://www.w3.org/2000/svg" width="512" height="512" viewBox="0 0 135.467 135.467"><path d="M25.65 134.042c-.157-.057-.563-.365-.9-.684-.923-.873-1.015-1.707-.988-8.93.03-8.252.078-7.575-.582-8.235-.559-.56-.559-.56-5.895-.56-4.727 0-5.51-.043-6.849-.385-3.232-.825-6.508-3.555-8.084-6.737-1.567-3.163-1.457-.289-1.457-37.8 0-37.443-.104-34.652 1.416-37.78 1.815-3.734 4.755-6.232 8.43-7.162.883-.224 8.31-.266 46.642-.266 50.373 0 46.39-.104 49.311 1.287 2.978 1.418 5.614 4.576 6.823 8.175.337 1.004.355 2.571.406 34.982.059 37.317.11 35.506-1.09 38.12-1.626 3.538-4.82 5.927-7.418 5.546-.501-.073-2.718-.66-4.926-1.302-4.015-1.17-4.015-1.17-26.38-1.17-22.366 0-22.366 0-23.321.513-.69.37-3.94 3.503-11.66 11.243-5.889 5.902-10.938 10.854-11.222 11.005-.508.27-1.694.344-2.256.14m77.266-24.496c1.06-.349 2.717-1.544 3.489-2.514.376-.473.854-1.407 1.063-2.075.373-1.193.38-1.815.38-33.97 0-23.502-.06-33.04-.214-33.766-.46-2.167-2.02-4.117-4.044-5.052-1.19-.55-1.19-.55-45.538-.608-33.44-.044-44.608-.003-45.4.166-2.13.455-3.71 1.71-4.7 3.728-.557 1.135-.557 1.135-.607 34.675-.045 30.226-.02 33.643.255 34.588.579 1.99 2.165 3.713 4.08 4.43 1.011.38 1.411.399 7.638.378 3.93-.013 6.714-.098 6.926-.21.717-.385.83-.954.958-4.865.132-4.003.36-5.51 1.245-8.22 1.093-3.345 2.963-6.29 5.78-9.098 3.312-3.3 6.305-5.058 10.824-6.354 1.251-.359 2.021-.389 11.605-.459 8.587-.062 10.539-.027 11.947.218 9.565 1.658 17.509 9.703 19.273 19.517.17.946.359 3.319.42 5.273.11 3.597.176 3.91.914 4.347.535.315 12.705.201 13.706-.129M55.471 76.503c-3.646-.634-6.795-2.219-9.186-4.622-2.775-2.79-4.3-5.939-4.766-9.847-.961-8.05 4.405-15.687 12.518-17.816 1.999-.524 5.96-.48 8.104.091 4.902 1.306 9.079 5.023 11.102 9.883.82 1.97 1.173 3.791 1.182 6.095.03 7.731-5.534 14.448-13.287 16.042-1.384.284-4.483.38-5.667.174m64.056-43.097c-1.074-.738-1.452-1.398-1.452-2.532 0-1.155.639-2.2 1.566-2.562.295-.116 2.967-1.118 5.937-2.226 6.22-2.323 6.827-2.431 7.972-1.426 1.564 1.373 1.294 3.748-.533 4.702-1.487.776-11.016 4.296-11.883 4.39-.795.085-1.066.027-1.607-.346m-7.398-10.465c-1.296-.79-1.814-2.704-1.104-4.077.42-.81 3.95-6.35 6.038-9.474 1.875-2.805 2.432-3.288 3.784-3.288 1.632 0 2.865 1.234 2.867 2.869 0 .798-.297 1.325-3.933 6.977-2.163 3.363-4.077 6.273-4.253 6.468-.831.922-2.36 1.158-3.399.525m-23.11-1.58c-.831-.46-1.393-1.177-4.122-5.263-1.684-2.523-2.885-4.515-2.96-4.91-.26-1.389.866-3.015 2.269-3.278.967-.181 2.119.208 2.74.925.3.345 1.777 2.485 3.284 4.756 3.087 4.654 3.243 5.06 2.52 6.552-.244.506-.655.997-.969 1.16-.637.329-2.212.362-2.762.058m10.343-3.269c-1.435-.822-1.454-.93-1.454-8.166 0-7.148.026-7.307 1.319-8.17 1.36-.91 3.34-.377 4.081 1.098.299.595.334 1.358.335 7.143 0 6.298-.011 6.495-.412 7.143-.455.735-1.641 1.377-2.551 1.378-.316 0-.909-.19-1.318-.426" style="fill:#000;stroke-width:.191158"/></svg>