<?xml version="1.0" encoding="UTF-8"?>
<!DOCTYPE svg PUBLIC "-//W3C//DTD SVG 1.1//EN" "http://www.w3.org/Graphics/SVG/1.1/DTD/svg11.dtd">
<svg xmlns="http://www.w3.org/2000/svg" version="1.1" width="1024px" height="1024px" style="shape-rendering:geometricPrecision; text-rendering:geometricPrecision; image-rendering:optimizeQuality; fill-rule:evenodd; clip-rule:evenodd" xmlns:xlink="http://www.w3.org/1999/xlink">
<g><path style="opacity:0.004" fill="#838685" d="M 323.5,5.5 C 324.833,6.16667 324.833,6.16667 323.5,5.5 Z"/></g>
<g><path style="opacity:0.004" fill="#858586" d="M 539.5,5.5 C 540.833,6.16667 540.833,6.16667 539.5,5.5 Z"/></g>
<g><path style="opacity:0.004" fill="#8b8c89" d="M 747.5,13.5 C 748.833,14.1667 748.833,14.1667 747.5,13.5 Z"/></g>
<g><path style="opacity:0.004" fill="#8b8c8c" d="M 76.5,32.5 C 77.8333,33.1667 77.8333,33.1667 76.5,32.5 Z"/></g>
<g><path style="opacity:0.004" fill="#858785" d="M 171.5,37.5 C 172.833,38.1667 172.833,38.1667 171.5,37.5 Z"/></g>
<g><path style="opacity:0.004" fill="#868887" d="M 635.5,45.5 C 636.833,46.1667 636.833,46.1667 635.5,45.5 Z"/></g>
<g><path style="opacity:0.004" fill="#8a8a8b" d="M 907.5,45.5 C 908.833,46.1667 908.833,46.1667 907.5,45.5 Z"/></g>
<g><path style="opacity:0.004" fill="#767575" d="M 340.5,56.5 C 341.833,57.1667 341.833,57.1667 340.5,56.5 Z"/></g>
<g><path style="opacity:0.004" fill="#8b8b8d" d="M 924.5,56.5 C 925.833,57.1667 925.833,57.1667 924.5,56.5 Z"/></g>
<g><path style="opacity:0.004" fill="#737674" d="M 451.5,61.5 C 452.833,62.1667 452.833,62.1667 451.5,61.5 Z"/></g>
<g><path style="opacity:0.004" fill="#898989" d="M 871.5,66.5 C 872.833,67.1667 872.833,67.1667 871.5,66.5 Z"/></g>
<g><path style="opacity:0.004" fill="#868885" d="M 875.5,125.5 C 876.833,126.167 876.833,126.167 875.5,125.5 Z"/></g>
<g><path style="opacity:0.004" fill="#717472" d="M 643.5,149.5 C 644.833,150.167 644.833,150.167 643.5,149.5 Z"/></g>
<g><path style="opacity:0.004" fill="#848584" d="M 891.5,181.5 C 892.833,182.167 892.833,182.167 891.5,181.5 Z"/></g>
<g><path style="opacity:0.004" fill="#151517" d="M 491.5,197.5 C 492.833,198.167 492.833,198.167 491.5,197.5 Z"/></g>
<g><path style="opacity:0.004" fill="#747673" d="M 731.5,197.5 C 732.833,198.167 732.833,198.167 731.5,197.5 Z"/></g>
<g><path style="opacity:0.004" fill="#1b1c1a" d="M 199.5,199.5 C 200.833,200.167 200.833,200.167 199.5,199.5 Z"/></g>
<g><path style="opacity:0.004" fill="#171819" d="M 203.5,199.5 C 204.833,200.167 204.833,200.167 203.5,199.5 Z"/></g>
<g><path style="opacity:0.004" fill="#0d0e0b" d="M 239.5,199.5 C 240.833,200.167 240.833,200.167 239.5,199.5 Z"/></g>
<g><path style="opacity:0.992" fill="#000000" d="M 406.5,267.5 C 351.071,266.647 296.904,266.647 244,267.5C 244.176,335.996 244.343,404.829 244.5,474C 244.276,482.171 241.943,489.671 237.5,496.5C 221.866,512.676 205.2,513.676 187.5,499.5C 186.087,496.495 184.087,493.995 181.5,492C 181.957,491.586 182.291,491.086 182.5,490.5C 181.253,488.677 180.586,486.677 180.5,484.5C 180.768,482.901 180.434,481.568 179.5,480.5C 180.154,450.109 179.488,419.942 177.5,390C 178.428,389.612 179.095,388.945 179.5,388C 179.769,378.487 179.436,368.987 178.5,359.5C 179.142,326.623 179.142,294.457 178.5,263C 179.319,253.911 179.819,244.744 180,235.5C 186.381,211.976 201.881,200.309 226.5,200.5C 230.863,201.822 235.196,201.822 239.5,200.5C 325.569,200.591 412.069,200.591 499,200.5C 522.026,204.526 532.693,218.192 531,241.5C 527.245,255.258 518.412,263.425 504.5,266C 485.167,266.333 465.833,266.667 446.5,267C 447.696,267.654 447.696,268.154 446.5,268.5C 439.836,267.205 433.002,266.538 426,266.5C 419.325,266.5 412.825,266.834 406.5,267.5 Z"/></g>
<g><path style="opacity:0.004" fill="#8a8a8b" d="M 963.5,205.5 C 964.833,206.167 964.833,206.167 963.5,205.5 Z"/></g>
<g><path style="opacity:0.004" fill="#151418" d="M 520.5,207.5 C 521.833,208.167 521.833,208.167 520.5,207.5 Z"/></g>
<g><path style="opacity:0.008" fill="#191818" d="M 526.5,212.5 C 527.833,213.167 527.833,213.167 526.5,212.5 Z"/></g>
<g><path style="opacity:0.004" fill="#575858" d="M 100.5,216.5 C 101.833,217.167 101.833,217.167 100.5,216.5 Z"/></g>
<g><path style="opacity:0.004" fill="#858787" d="M 932.5,216.5 C 933.833,217.167 933.833,217.167 932.5,216.5 Z"/></g>
<g><path style="opacity:0.008" fill="#121614" d="M 184.5,218.5 C 185.833,219.167 185.833,219.167 184.5,218.5 Z"/></g>
<g><path style="opacity:0.004" fill="#121413" d="M 178.5,232.5 C 179.833,233.167 179.833,233.167 178.5,232.5 Z"/></g>
<g><path style="opacity:0.008" fill="#111113" d="M 177.5,236.5 C 178.833,237.167 178.833,237.167 177.5,236.5 Z"/></g>
<g><path style="opacity:0.004" fill="#0f0f12" d="M 175.5,240.5 C 176.833,241.167 176.833,241.167 175.5,240.5 Z"/></g>
<g><path style="opacity:0.005" fill="#0e0e0d" d="M 177.5,241.5 C 178.573,242.251 178.74,243.251 178,244.5C 177.517,243.552 177.351,242.552 177.5,241.5 Z"/></g>
<g><path style="opacity:0.004" fill="#5d5e5c" d="M 635.5,245.5 C 636.833,246.167 636.833,246.167 635.5,245.5 Z"/></g>
<g><path style="opacity:0.008" fill="#0d0c0d" d="M 177.5,248.5 C 178.525,248.897 178.692,249.563 178,250.5C 177.536,249.906 177.369,249.239 177.5,248.5 Z"/></g>
<g><path style="opacity:0.004" fill="#7b7b7a" d="M 868.5,256.5 C 869.833,257.167 869.833,257.167 868.5,256.5 Z"/></g>
<g><path style="opacity:0.004" fill="#0c0b0d" d="M 177.5,257.5 C 178.833,258.167 178.833,258.167 177.5,257.5 Z"/></g>
<g><path style="opacity:0.008" fill="#0b0b0a" d="M 177.5,265.5 C 178.525,265.897 178.692,266.563 178,267.5C 177.536,266.906 177.369,266.239 177.5,265.5 Z"/></g>
<g><path style="opacity:0.004" fill="#010300" d="M 251.5,267.5 C 252.833,268.167 252.833,268.167 251.5,267.5 Z"/></g>
<g><path style="opacity:0.006" fill="#000202" d="M 253.5,268.5 C 253.897,267.475 254.563,267.308 255.5,268C 254.906,268.464 254.239,268.631 253.5,268.5 Z"/></g>
<g><path style="opacity:0.005" fill="#030204" d="M 256.5,268.5 C 257.946,267.387 259.613,267.22 261.5,268C 259.866,268.494 258.199,268.66 256.5,268.5 Z"/></g>
<g><path style="opacity:0.008" fill="#020403" d="M 262.5,267.5 C 263.833,268.167 263.833,268.167 262.5,267.5 Z"/></g>
<g><path style="opacity:0.016" fill="#020307" d="M 264.5,267.5 C 265.833,268.167 265.833,268.167 264.5,267.5 Z"/></g>
<g><path style="opacity:0.004" fill="#020403" d="M 272.5,267.5 C 273.833,268.167 273.833,268.167 272.5,267.5 Z"/></g>
<g><path style="opacity:0.004" fill="#030401" d="M 275.5,267.5 C 276.833,268.167 276.833,268.167 275.5,267.5 Z"/></g>
<g><path style="opacity:0.004" fill="#020404" d="M 281.5,267.5 C 282.833,268.167 282.833,268.167 281.5,267.5 Z"/></g>
<g><path style="opacity:0.004" fill="#020502" d="M 297.5,267.5 C 298.833,268.167 298.833,268.167 297.5,267.5 Z"/></g>
<g><path style="opacity:0.004" fill="#040303" d="M 303.5,267.5 C 304.833,268.167 304.833,268.167 303.5,267.5 Z"/></g>
<g><path style="opacity:0.008" fill="#030405" d="M 307.5,268.5 C 308.251,267.427 309.251,267.26 310.5,268C 309.552,268.483 308.552,268.649 307.5,268.5 Z"/></g>
<g><path style="opacity:0.004" fill="#020403" d="M 313.5,267.5 C 314.833,268.167 314.833,268.167 313.5,267.5 Z"/></g>
<g><path style="opacity:0.004" fill="#020702" d="M 321.5,267.5 C 322.833,268.167 322.833,268.167 321.5,267.5 Z"/></g>
<g><path style="opacity:0.008" fill="#030305" d="M 325.5,268.5 C 325.897,267.475 326.563,267.308 327.5,268C 326.906,268.464 326.239,268.631 325.5,268.5 Z"/></g>
<g><path style="opacity:0.004" fill="#020304" d="M 333.5,267.5 C 334.833,268.167 334.833,268.167 333.5,267.5 Z"/></g>
<g><path style="opacity:0.008" fill="#020502" d="M 337.5,267.5 C 338.833,268.167 338.833,268.167 337.5,267.5 Z"/></g>
<g><path style="opacity:0.012" fill="#040304" d="M 341.5,268.5 C 341.897,267.475 342.563,267.308 343.5,268C 342.906,268.464 342.239,268.631 341.5,268.5 Z"/></g>
<g><path style="opacity:0.007" fill="#020304" d="M 344.5,268.5 C 345.251,267.427 346.251,267.26 347.5,268C 346.552,268.483 345.552,268.649 344.5,268.5 Z"/></g>
<g><path style="opacity:0.004" fill="#030302" d="M 355.5,267.5 C 356.833,268.167 356.833,268.167 355.5,267.5 Z"/></g>
<g><path style="opacity:0.008" fill="#040405" d="M 360.5,268.5 C 360.897,267.475 361.563,267.308 362.5,268C 361.906,268.464 361.239,268.631 360.5,268.5 Z"/></g>
<g><path style="opacity:0.004" fill="#030403" d="M 366.5,267.5 C 367.833,268.167 367.833,268.167 366.5,267.5 Z"/></g>
<g><path style="opacity:0.012" fill="#030403" d="M 368.5,268.5 C 368.897,267.475 369.563,267.308 370.5,268C 369.906,268.464 369.239,268.631 368.5,268.5 Z"/></g>
<g><path style="opacity:0.004" fill="#020504" d="M 379.5,267.5 C 380.833,268.167 380.833,268.167 379.5,267.5 Z"/></g>
<g><path style="opacity:0.012" fill="#010303" d="M 382.5,267.5 C 383.833,268.167 383.833,268.167 382.5,267.5 Z"/></g>
<g><path style="opacity:0.004" fill="#040304" d="M 393.5,267.5 C 394.833,268.167 394.833,268.167 393.5,267.5 Z"/></g>
<g><path style="opacity:0.004" fill="#030403" d="M 397.5,267.5 C 398.833,268.167 398.833,268.167 397.5,267.5 Z"/></g>
<g><path style="opacity:0.004" fill="#040404" d="M 403.5,267.5 C 404.833,268.167 404.833,268.167 403.5,267.5 Z"/></g>
<g><path style="opacity:0.016" fill="#030404" d="M 406.5,267.5 C 407.833,268.167 407.833,268.167 406.5,267.5 Z"/></g>
<g><path style="opacity:0.004" fill="#030505" d="M 409.5,267.5 C 410.833,268.167 410.833,268.167 409.5,267.5 Z"/></g>
<g><path style="opacity:0.004" fill="#030403" d="M 424.5,267.5 C 425.833,268.167 425.833,268.167 424.5,267.5 Z"/></g>
<g><path style="opacity:0.004" fill="#040303" d="M 430.5,267.5 C 431.833,268.167 431.833,268.167 430.5,267.5 Z"/></g>
<g><path style="opacity:0.008" fill="#020504" d="M 432.5,268.5 C 432.897,267.475 433.563,267.308 434.5,268C 433.906,268.464 433.239,268.631 432.5,268.5 Z"/></g>
<g><path style="opacity:0.008" fill="#030403" d="M 438.5,267.5 C 439.833,268.167 439.833,268.167 438.5,267.5 Z"/></g>
<g><path style="opacity:0.008" fill="#010502" d="M 449.5,267.5 C 450.833,268.167 450.833,268.167 449.5,267.5 Z"/></g>
<g><path style="opacity:0.004" fill="#020502" d="M 457.5,267.5 C 458.833,268.167 458.833,268.167 457.5,267.5 Z"/></g>
<g><path style="opacity:0.004" fill="#030305" d="M 459.5,267.5 C 460.833,268.167 460.833,268.167 459.5,267.5 Z"/></g>
<g><path style="opacity:0.004" fill="#030404" d="M 462.5,268.5 C 463.601,267.402 464.934,267.235 466.5,268C 465.207,268.49 463.873,268.657 462.5,268.5 Z"/></g>
<g><path style="opacity:0.01" fill="#040404" d="M 468.5,268.5 C 469.251,267.427 470.251,267.26 471.5,268C 470.552,268.483 469.552,268.649 468.5,268.5 Z"/></g>
<g><path style="opacity:0.004" fill="#050302" d="M 476.5,267.5 C 477.833,268.167 477.833,268.167 476.5,267.5 Z"/></g>
<g><path style="opacity:0.012" fill="#020502" d="M 481.5,267.5 C 482.833,268.167 482.833,268.167 481.5,267.5 Z"/></g>
<g><path style="opacity:0.012" fill="#090706" d="M 500.5,267.5 C 501.833,268.167 501.833,268.167 500.5,267.5 Z"/></g>
<g><path style="opacity:0.008" fill="#070808" d="M 502.5,267.5 C 503.833,268.167 503.833,268.167 502.5,267.5 Z"/></g>
<g><path style="opacity:0.008" fill="#030505" d="M 339.5,269.5 C 340.833,270.167 340.833,270.167 339.5,269.5 Z"/></g>
<g><path style="opacity:0.004" fill="#030607" d="M 370.5,269.5 C 371.833,270.167 371.833,270.167 370.5,269.5 Z"/></g>
<g><path style="opacity:0.004" fill="#050406" d="M 402.5,269.5 C 403.833,270.167 403.833,270.167 402.5,269.5 Z"/></g>
<g><path style="opacity:0.004" fill="#2f2f2e" d="M 555.5,269.5 C 556.833,270.167 556.833,270.167 555.5,269.5 Z"/></g>
<g><path style="opacity:0.004" fill="#838786" d="M 940.5,272.5 C 941.833,273.167 941.833,273.167 940.5,272.5 Z"/></g>
<g><path style="opacity:0.004" fill="#080709" d="M 177.5,275.5 C 178.833,276.167 178.833,276.167 177.5,275.5 Z"/></g>
<g><path style="opacity:0.004" fill="#090b08" d="M 177.5,277.5 C 178.833,278.167 178.833,278.167 177.5,277.5 Z"/></g>
<g><path style="opacity:0.004" fill="#030203" d="M 245.5,278.5 C 246.833,279.167 246.833,279.167 245.5,278.5 Z"/></g>
<g><path style="opacity:0.008" fill="#0a0a09" d="M 177.5,283.5 C 178.833,284.167 178.833,284.167 177.5,283.5 Z"/></g>
<g><path style="opacity:0.004" fill="#898989" d="M 995.5,285.5 C 996.833,286.167 996.833,286.167 995.5,285.5 Z"/></g>
<g><path style="opacity:0.007" fill="#080a09" d="M 177.5,288.5 C 178.573,289.251 178.74,290.251 178,291.5C 177.517,290.552 177.351,289.552 177.5,288.5 Z"/></g>
<g><path style="opacity:0.007" fill="#080909" d="M 176.5,297.5 C 176.56,296.957 176.893,296.624 177.5,296.5C 178.583,297.365 178.749,298.365 178,299.5C 177.722,298.584 177.222,297.918 176.5,297.5 Z"/></g>
<g><path style="opacity:0.008" fill="#09090a" d="M 176.5,303.5 C 177.077,302.227 177.743,302.227 178.5,303.5C 178.03,304.463 177.363,304.463 176.5,303.5 Z"/></g>
<g><path style="opacity:0.004" fill="#080a09" d="M 177.5,305.5 C 178.833,306.167 178.833,306.167 177.5,305.5 Z"/></g>
<g><path style="opacity:0.004" fill="#050403" d="M 245.5,306.5 C 246.833,307.167 246.833,307.167 245.5,306.5 Z"/></g>
<g><path style="opacity:0.004" fill="#070a07" d="M 177.5,307.5 C 178.833,308.167 178.833,308.167 177.5,307.5 Z"/></g>
<g><path style="opacity:0.004" fill="#2e312f" d="M 132.5,312.5 C 133.833,313.167 133.833,313.167 132.5,312.5 Z"/></g>
<g><path style="opacity:0.004" fill="#121111" d="M 172.5,312.5 C 173.833,313.167 173.833,313.167 172.5,312.5 Z"/></g>
<g><path style="opacity:0.012" fill="#080907" d="M 177.5,314.5 C 178.833,315.167 178.833,315.167 177.5,314.5 Z"/></g>
<g><path style="opacity:0.004" fill="#3f3f3f" d="M 107.5,317.5 C 108.833,318.167 108.833,318.167 107.5,317.5 Z"/></g>
<g><path style="opacity:0.983" fill="#000000" d="M 531.5,326.5 C 534.134,328.969 536.634,331.636 539,334.5C 542.608,340.734 546.441,346.734 550.5,352.5C 566,379.506 582,406.173 598.5,432.5C 607.11,447.767 616.11,462.767 625.5,477.5C 626.11,479.434 627.11,481.101 628.5,482.5C 634.416,494.007 641.083,505.007 648.5,515.5C 652.333,523.171 656.666,530.504 661.5,537.5C 663,541.173 665,544.506 667.5,547.5C 667.75,549.674 668.75,551.341 670.5,552.5C 678.672,566.295 686.672,579.629 694.5,592.5C 702.339,617.149 694.339,634.149 670.5,643.5C 634.519,644.301 598.519,644.801 562.5,645C 565.5,645.333 568.5,645.667 571.5,646C 564.167,646.667 556.833,646.667 549.5,646C 553.5,645.667 557.5,645.333 561.5,645C 537.5,644.333 513.5,644.333 489.5,645C 490.712,646.107 490.379,646.607 488.5,646.5C 445.512,644.671 402.178,643.837 358.5,644C 338.304,641.451 327.304,629.617 325.5,608.5C 325.253,602.914 326.253,597.581 328.5,592.5C 339.557,574.766 350.224,556.766 360.5,538.5C 402,470.172 443,401.506 483.5,332.5C 485.5,331.167 487.167,329.5 488.5,327.5C 502.87,318.429 517.204,318.095 531.5,326.5 Z M 510.5,406.5 C 510.833,407.833 511.167,407.833 511.5,406.5C 512.338,406.842 512.672,407.508 512.5,408.5C 515.403,412.63 518.07,416.963 520.5,421.5C 525.429,428.404 529.429,435.404 532.5,442.5C 551.667,473.495 570.334,504.828 588.5,536.5C 588.062,536.435 587.728,536.601 587.5,537C 588.474,539.665 589.141,539.831 589.5,537.5C 592.258,540.678 594.258,544.345 595.5,548.5C 603.109,559.536 610.109,571.036 616.5,583C 616.167,583.5 615.833,584 615.5,584.5C 544.112,583.589 473.945,583.589 405,584.5C 414.36,566.794 424.526,549.46 435.5,532.5C 443.666,517.496 452.333,502.829 461.5,488.5C 468.679,475.465 476.345,462.798 484.5,450.5C 486.749,444.995 489.749,439.995 493.5,435.5C 493.328,434.508 493.662,433.842 494.5,433.5C 499.081,423.997 504.414,414.997 510.5,406.5 Z"/></g>
<g><path style="opacity:0.004" fill="#080907" d="M 177.5,320.5 C 178.833,321.167 178.833,321.167 177.5,320.5 Z"/></g>
<g><path style="opacity:0.004" fill="#080709" d="M 177.5,322.5 C 178.525,322.897 178.692,323.563 178,324.5C 177.536,323.906 177.369,323.239 177.5,322.5 Z"/></g>
<g><path style="opacity:0.004" fill="#11100e" d="M 531.5,325.5 C 532.833,326.167 532.833,326.167 531.5,325.5 Z"/></g>
<g><path style="opacity:0.008" fill="#0a0708" d="M 488.5,327.5 C 487.833,326.167 487.833,326.167 488.5,327.5 Z"/></g>
<g><path style="opacity:0.004" fill="#08090a" d="M 481.5,327.5 C 482.833,328.167 482.833,328.167 481.5,327.5 Z"/></g>
<g><path style="opacity:0.004" fill="#080709" d="M 177.5,328.5 C 178.833,329.167 178.833,329.167 177.5,328.5 Z"/></g>
<g><path style="opacity:0.008" fill="#080709" d="M 484.5,328.5 C 485.833,329.167 485.833,329.167 484.5,328.5 Z"/></g>
<g><path style="opacity:0.016" fill="#080a09" d="M 479.5,329.5 C 480.833,330.167 480.833,330.167 479.5,329.5 Z"/></g>
<g><path style="opacity:0.004" fill="#070807" d="M 484.5,329.5 C 483.833,330.167 483.833,330.167 484.5,329.5 Z"/></g>
<g><path style="opacity:0.004" fill="#121312" d="M 541.5,330.5 C 542.833,331.167 542.833,331.167 541.5,330.5 Z"/></g>
<g><path style="opacity:0.004" fill="#060609" d="M 483.5,332.5 C 482.833,331.167 482.833,331.167 483.5,332.5 Z"/></g>
<g><path style="opacity:0.004" fill="#111312" d="M 171.5,333.5 C 172.833,334.167 172.833,334.167 171.5,333.5 Z"/></g>
<g><path style="opacity:0.004" fill="#060a06" d="M 177.5,333.5 C 178.833,334.167 178.833,334.167 177.5,333.5 Z"/></g>
<g><path style="opacity:0.004" fill="#10100e" d="M 540.5,334.5 C 541.833,335.167 541.833,335.167 540.5,334.5 Z"/></g>
<g><path style="opacity:0.004" fill="#090909" d="M 475.5,335.5 C 476.833,336.167 476.833,336.167 475.5,335.5 Z"/></g>
<g><path style="opacity:0.004" fill="#070907" d="M 176.5,336.5 C 177.833,337.167 177.833,337.167 176.5,336.5 Z"/></g>
<g><path style="opacity:0.008" fill="#0a0c0b" d="M 542.5,337.5 C 543.833,338.167 543.833,338.167 542.5,337.5 Z"/></g>
<g><path style="opacity:0.004" fill="#050605" d="M 245.5,342.5 C 246.833,343.167 246.833,343.167 245.5,342.5 Z"/></g>
<g><path style="opacity:0.007" fill="#080907" d="M 177.5,345.5 C 178.598,346.601 178.765,347.934 178,349.5C 176.489,348.436 176.323,347.103 177.5,345.5 Z"/></g>
<g><path style="opacity:0.004" fill="#222222" d="M 331.5,349.5 C 332.833,350.167 332.833,350.167 331.5,349.5 Z"/></g>
<g><path style="opacity:0.004" fill="#090808" d="M 175.5,351.5 C 176.833,352.167 176.833,352.167 175.5,351.5 Z"/></g>
<g><path style="opacity:0.012" fill="#060606" d="M 550.5,351.5 C 551.833,352.167 551.833,352.167 550.5,351.5 Z"/></g>
<g><path style="opacity:0.016" fill="#070b08" d="M 177.5,354.5 C 178.833,355.167 178.833,355.167 177.5,354.5 Z"/></g>
<g><path style="opacity:0.008" fill="#060707" d="M 178.5,359.5 C 177.833,360.167 177.833,360.167 178.5,359.5 Z"/></g>
<g><path style="opacity:0.02" fill="#020504" d="M 463.5,362.5 C 464.833,363.167 464.833,363.167 463.5,362.5 Z"/></g>
<g><path style="opacity:0.008" fill="#060906" d="M 177.5,363.5 C 178.833,364.167 178.833,364.167 177.5,363.5 Z"/></g>
<g><path style="opacity:0.004" fill="#070704" d="M 245.5,363.5 C 246.833,364.167 246.833,364.167 245.5,363.5 Z"/></g>
<g><path style="opacity:0.004" fill="#060606" d="M 456.5,367.5 C 457.833,368.167 457.833,368.167 456.5,367.5 Z"/></g>
<g><path style="opacity:0.004" fill="#070a09" d="M 175.5,368.5 C 176.833,369.167 176.833,369.167 175.5,368.5 Z"/></g>
<g><path style="opacity:0.008" fill="#070908" d="M 177.5,370.5 C 178.525,370.897 178.692,371.563 178,372.5C 177.536,371.906 177.369,371.239 177.5,370.5 Z"/></g>
<g><path style="opacity:0.008" fill="#090908" d="M 563.5,372.5 C 564.833,373.167 564.833,373.167 563.5,372.5 Z"/></g>
<g><path style="opacity:0.004" fill="#090a08" d="M 177.5,373.5 C 178.833,374.167 178.833,374.167 177.5,373.5 Z"/></g>
<g><path style="opacity:0.004" fill="#151414" d="M 267.5,373.5 C 268.833,374.167 268.833,374.167 267.5,373.5 Z"/></g>
<g><path style="opacity:0.004" fill="#040705" d="M 454.5,375.5 C 455.833,376.167 455.833,376.167 454.5,375.5 Z"/></g>
<g><path style="opacity:0.008" fill="#050707" d="M 565.5,375.5 C 566.833,376.167 566.833,376.167 565.5,375.5 Z"/></g>
<g><path style="opacity:0.008" fill="#050908" d="M 177.5,376.5 C 178.833,377.167 178.833,377.167 177.5,376.5 Z"/></g>
<g><path style="opacity:0.008" fill="#070607" d="M 566.5,377.5 C 567.833,378.167 567.833,378.167 566.5,377.5 Z"/></g>
<g><path style="opacity:0.006" fill="#080809" d="M 177.5,379.5 C 178.525,379.897 178.692,380.563 178,381.5C 177.536,380.906 177.369,380.239 177.5,379.5 Z"/></g>
<g><path style="opacity:0.004" fill="#747474" d="M 915.5,381.5 C 916.833,382.167 916.833,382.167 915.5,381.5 Z"/></g>
<g><path style="opacity:0.008" fill="#060705" d="M 245.5,390.5 C 246.833,391.167 246.833,391.167 245.5,390.5 Z"/></g>
<g><path style="opacity:0.004" fill="#080908" d="M 439.5,392.5 C 440.833,393.167 440.833,393.167 439.5,392.5 Z"/></g>
<g><path style="opacity:0.012" fill="#080a08" d="M 177.5,399.5 C 178.773,400.077 178.773,400.743 177.5,401.5C 176.537,401.03 176.537,400.363 177.5,399.5 Z"/></g>
<g><path style="opacity:0.008" fill="#060707" d="M 245.5,399.5 C 246.833,400.167 246.833,400.167 245.5,399.5 Z"/></g>
<g><path style="opacity:0.004" fill="#030403" d="M 439.5,401.5 C 440.833,402.167 440.833,402.167 439.5,401.5 Z"/></g>
<g><path style="opacity:0.008" fill="#090907" d="M 176.5,403.5 C 177.077,402.227 177.743,402.227 178.5,403.5C 178.03,404.463 177.363,404.463 176.5,403.5 Z"/></g>
<g><path style="opacity:0.004" fill="#555758" d="M 67.5,405.5 C 68.8333,406.167 68.8333,406.167 67.5,405.5 Z"/></g>
<g><path style="opacity:0.012" fill="#080908" d="M 177.5,407.5 C 178.833,408.167 178.833,408.167 177.5,407.5 Z"/></g>
<g><path style="opacity:0.004" fill="#070907" d="M 431.5,407.5 C 432.833,408.167 432.833,408.167 431.5,407.5 Z"/></g>
<g><path style="opacity:0.01" fill="#080707" d="M 177.5,409.5 C 178.573,410.251 178.74,411.251 178,412.5C 177.517,411.552 177.351,410.552 177.5,409.5 Z"/></g>
<g><path style="opacity:0.008" fill="#0a0a08" d="M 177.5,413.5 C 178.833,414.167 178.833,414.167 177.5,413.5 Z"/></g>
<g><path style="opacity:0.008" fill="#080708" d="M 245.5,414.5 C 246.833,415.167 246.833,415.167 245.5,414.5 Z"/></g>
<g><path style="opacity:0.004" fill="#050302" d="M 431.5,415.5 C 432.833,416.167 432.833,416.167 431.5,415.5 Z"/></g>
<g><path style="opacity:0.004" fill="#50504e" d="M 87.5,418.5 C 88.8333,419.167 88.8333,419.167 87.5,418.5 Z"/></g>
<g><path style="opacity:0.004" fill="#080a08" d="M 177.5,416.5 C 178.782,417.708 178.782,419.042 177.5,420.5C 177.094,419.443 177.094,418.109 177.5,416.5 Z"/></g>
<g><path style="opacity:0.006" fill="#080807" d="M 245.5,421.5 C 246.525,421.897 246.692,422.563 246,423.5C 245.536,422.906 245.369,422.239 245.5,421.5 Z"/></g>
<g><path style="opacity:0.004" fill="#080a07" d="M 177.5,426.5 C 178.525,426.897 178.692,427.563 178,428.5C 177.536,427.906 177.369,427.239 177.5,426.5 Z"/></g>
<g><path style="opacity:0.008" fill="#080b0a" d="M 177.5,429.5 C 178.833,430.167 178.833,430.167 177.5,429.5 Z"/></g>
<g><path style="opacity:0.004" fill="#050405" d="M 423.5,429.5 C 424.833,430.167 424.833,430.167 423.5,429.5 Z"/></g>
<g><path style="opacity:0.016" fill="#040403" d="M 598.5,431.5 C 599.833,432.167 599.833,432.167 598.5,431.5 Z"/></g>
<g><path style="opacity:0.004" fill="#0a0c0a" d="M 601.5,434.5 C 602.833,435.167 602.833,435.167 601.5,434.5 Z"/></g>
<g><path style="opacity:0.004" fill="#0a0a0a" d="M 177.5,439.5 C 178.833,440.167 178.833,440.167 177.5,439.5 Z"/></g>
<g><path style="opacity:0.01" fill="#080a09" d="M 177.5,441.5 C 178.525,441.897 178.692,442.563 178,443.5C 177.536,442.906 177.369,442.239 177.5,441.5 Z"/></g>
<g><path style="opacity:0.012" fill="#040404" d="M 415.5,442.5 C 416.833,443.167 416.833,443.167 415.5,442.5 Z"/></g>
<g><path style="opacity:0.004" fill="#090c0b" d="M 177.5,449.5 C 176.833,448.167 176.833,448.167 177.5,449.5 Z"/></g>
<g><path style="opacity:0.008" fill="#0b0b0a" d="M 177.5,449.5 C 178.833,450.167 178.833,450.167 177.5,449.5 Z"/></g>
<g><path style="opacity:0.008" fill="#060806" d="M 409.5,449.5 C 410.833,450.167 410.833,450.167 409.5,449.5 Z"/></g>
<g><path style="opacity:0.004" fill="#090d0b" d="M 177.5,455.5 C 178.833,456.167 178.833,456.167 177.5,455.5 Z"/></g>
<g><path style="opacity:0.004" fill="#131318" d="M 797.5,455.5 C 798.833,456.167 798.833,456.167 797.5,455.5 Z"/></g>
<g><path style="opacity:0.99" fill="#000000" d="M 828.5,459.5 C 836.622,465.394 841.455,473.394 843,483.5C 842.839,538.215 843.673,592.715 845.5,647C 843.517,669.603 842.85,692.436 843.5,715.5C 842.503,732.659 842.17,749.992 842.5,767.5C 842.044,775.744 838.877,782.744 833,788.5C 832.517,789.448 832.351,790.448 832.5,791.5C 827.208,794.813 821.541,797.646 815.5,800C 812.568,800.953 809.568,801.453 806.5,801.5C 771.663,801.168 736.996,801.502 702.5,802.5C 701.5,802.5 700.5,802.5 699.5,802.5C 685.833,801.167 672.167,801.167 658.5,802.5C 643.167,802.5 627.833,802.5 612.5,802.5C 601.833,801.167 591.167,801.167 580.5,802.5C 560.497,802.667 540.497,802.5 520.5,802C 501.567,798.74 491.234,787.906 489.5,769.5C 490.212,759.754 493.878,751.42 500.5,744.5C 504.328,742.421 508.328,740.588 512.5,739C 601.167,738.667 689.833,738.333 778.5,738C 777.833,737.667 777.167,737.333 776.5,737C 778.154,729.189 779.154,721.189 779.5,713C 778.594,711.301 778.261,709.467 778.5,707.5C 774.5,707.167 774.5,706.833 778.5,706.5C 778.013,679.382 778.013,652.715 778.5,626.5C 778.382,623.629 777.716,620.962 776.5,618.5C 777.585,617.216 778.252,615.716 778.5,614C 778.226,578.207 777.892,542.207 777.5,506C 778.217,496.876 779.05,487.71 780,478.5C 786.322,461.629 798.155,453.796 815.5,455C 820.033,456.011 824.367,457.511 828.5,459.5 Z"/></g>
<g><path style="opacity:0.012" fill="#17191a" d="M 829.5,456.5 C 829.897,455.475 830.563,455.308 831.5,456C 830.906,456.464 830.239,456.631 829.5,456.5 Z"/></g>
<g><path style="opacity:0.008" fill="#020502" d="M 407.5,456.5 C 408.833,457.167 408.833,457.167 407.5,456.5 Z"/></g>
<g><path style="opacity:0.012" fill="#141617" d="M 795.5,456.5 C 796.833,457.167 796.833,457.167 795.5,456.5 Z"/></g>
<g><path style="opacity:0.004" fill="#161a16" d="M 825.5,456.5 C 826.833,457.167 826.833,457.167 825.5,456.5 Z"/></g>
<g><path style="opacity:0.008" fill="#0a0b0b" d="M 177.5,457.5 C 178.833,458.167 178.833,458.167 177.5,457.5 Z"/></g>
<g><path style="opacity:0.004" fill="#181819" d="M 828.5,458.5 C 829.833,459.167 829.833,459.167 828.5,458.5 Z"/></g>
<g><path style="opacity:0.004" fill="#0b0c0d" d="M 177.5,459.5 C 178.525,459.897 178.692,460.563 178,461.5C 177.536,460.906 177.369,460.239 177.5,459.5 Z"/></g>
<g><path style="opacity:0.008" fill="#0c0f0d" d="M 177.5,463.5 C 178.833,464.167 178.833,464.167 177.5,463.5 Z"/></g>
<g><path style="opacity:0.01" fill="#0e0d0e" d="M 177.5,465.5 C 178.598,466.601 178.765,467.934 178,469.5C 177.51,468.207 177.343,466.873 177.5,465.5 Z"/></g>
<g><path style="opacity:0.004" fill="#0e1312" d="M 784.5,465.5 C 785.833,466.167 785.833,466.167 784.5,465.5 Z"/></g>
<g><path style="opacity:0.008" fill="#111111" d="M 176.5,473.5 C 175.833,472.167 175.833,472.167 176.5,473.5 Z"/></g>
<g><path style="opacity:0.004" fill="#17181a" d="M 845.5,472.5 C 846.833,473.167 846.833,473.167 845.5,472.5 Z"/></g>
<g><path style="opacity:0.006" fill="#0f0f10" d="M 176.5,473.5 C 178.465,473.948 178.798,474.948 177.5,476.5C 177.483,475.606 177.149,474.606 176.5,473.5 Z"/></g>
<g><path style="opacity:0.008" fill="#060607" d="M 625.5,476.5 C 626.833,477.167 626.833,477.167 625.5,476.5 Z"/></g>
<g><path style="opacity:0.012" fill="#0e100f" d="M 177.5,477.5 C 178.833,478.167 178.833,478.167 177.5,477.5 Z"/></g>
<g><path style="opacity:0.008" fill="#050406" d="M 629.5,480.5 C 630.833,481.167 630.833,481.167 629.5,480.5 Z"/></g>
<g><path style="opacity:0.004" fill="#060605" d="M 629.5,481.5 C 628.833,482.167 628.833,482.167 629.5,481.5 Z"/></g>
<g><path style="opacity:0.004" fill="#0d0d0c" d="M 777.5,482.5 C 778.833,483.167 778.833,483.167 777.5,482.5 Z"/></g>
<g><path style="opacity:0.012" fill="#0f0f10" d="M 179.5,480.5 C 180.434,481.568 180.768,482.901 180.5,484.5C 179.778,484.082 179.278,483.416 179,482.5C 178.667,483.167 178.333,483.833 178,484.5C 177.333,483.167 177.333,481.833 178,480.5C 178.69,481.738 179.19,481.738 179.5,480.5 Z"/></g>
<g><path style="opacity:0.004" fill="#0f1212" d="M 243.5,486.5 C 244.833,487.167 244.833,487.167 243.5,486.5 Z"/></g>
<g><path style="opacity:0.004" fill="#151514" d="M 175.5,487.5 C 176.833,488.167 176.833,488.167 175.5,487.5 Z"/></g>
<g><path style="opacity:0.016" fill="#040505" d="M 388.5,488.5 C 389.833,489.167 389.833,489.167 388.5,488.5 Z"/></g>
<g><path style="opacity:0.004" fill="#141315" d="M 187.5,499.5 C 186.833,500.167 186.833,500.167 187.5,499.5 Z"/></g>
<g><path style="opacity:0.004" fill="#0f1011" d="M 237.5,496.5 C 238.833,497.167 238.833,497.167 237.5,496.5 Z"/></g>
<g><path style="opacity:0.012" fill="#030403" d="M 383.5,496.5 C 384.833,497.167 384.833,497.167 383.5,496.5 Z"/></g>
<g><path style="opacity:0.004" fill="#151313" d="M 178.5,493.5 C 179.833,494.167 179.833,494.167 178.5,493.5 Z"/></g>
<g><path style="opacity:0.004" fill="#080808" d="M 643.5,503.5 C 644.833,504.167 644.833,504.167 643.5,503.5 Z"/></g>
<g><path style="opacity:0.008" fill="#080808" d="M 645.5,504.5 C 646.525,504.897 646.692,505.563 646,506.5C 645.536,505.906 645.369,505.239 645.5,504.5 Z"/></g>
<g><path style="opacity:0.008" fill="#121512" d="M 199.5,508.5 C 200.833,509.167 200.833,509.167 199.5,508.5 Z"/></g>
<g><path style="opacity:0.004" fill="#131212" d="M 202.5,510.5 C 202.897,509.475 203.563,509.308 204.5,510C 203.906,510.464 203.239,510.631 202.5,510.5 Z"/></g>
<g><path style="opacity:0.01" fill="#0d0d0f" d="M 211.5,511.5 C 211.897,510.475 212.563,510.308 213.5,511C 212.906,511.464 212.239,511.631 211.5,511.5 Z"/></g>
<g><path style="opacity:0.004" fill="#0c0e0e" d="M 214.5,510.5 C 215.833,511.167 215.833,511.167 214.5,510.5 Z"/></g>
<g><path style="opacity:0.004" fill="#110f0d" d="M 844.5,510.5 C 845.833,511.167 845.833,511.167 844.5,510.5 Z"/></g>
<g><path style="opacity:0.008" fill="#121010" d="M 844.5,512.5 C 845.525,512.897 845.692,513.563 845,514.5C 844.536,513.906 844.369,513.239 844.5,512.5 Z"/></g>
<g><path style="opacity:0.008" fill="#080909" d="M 648.5,514.5 C 649.833,515.167 649.833,515.167 648.5,514.5 Z"/></g>
<g><path style="opacity:0.004" fill="#060708" d="M 776.5,516.5 C 777.525,516.897 777.692,517.563 777,518.5C 776.536,517.906 776.369,517.239 776.5,516.5 Z"/></g>
<g><path style="opacity:0.004" fill="#050505" d="M 776.5,522.5 C 777.833,523.167 777.833,523.167 776.5,522.5 Z"/></g>
<g><path style="opacity:0.004" fill="#030505" d="M 776.5,526.5 C 777.833,527.167 777.833,527.167 776.5,526.5 Z"/></g>
<g><path style="opacity:0.004" fill="#0f0f0e" d="M 844.5,526.5 C 845.833,527.167 845.833,527.167 844.5,526.5 Z"/></g>
<g><path style="opacity:0.008" fill="#100d0f" d="M 844.5,529.5 C 845.525,529.897 845.692,530.563 845,531.5C 844.536,530.906 844.369,530.239 844.5,529.5 Z"/></g>
<g><path style="opacity:0.004" fill="#161616" d="M 848.5,529.5 C 849.833,530.167 849.833,530.167 848.5,529.5 Z"/></g>
<g><path style="opacity:0.004" fill="#040604" d="M 776.5,530.5 C 777.833,531.167 777.833,531.167 776.5,530.5 Z"/></g>
<g><path style="opacity:0.008" fill="#0f0e0e" d="M 844.5,532.5 C 845.833,533.167 845.833,533.167 844.5,532.5 Z"/></g>
<g><path style="opacity:0.012" fill="#0f0d0e" d="M 844.5,534.5 C 845.833,535.167 845.833,535.167 844.5,534.5 Z"/></g>
<g><path style="opacity:0.004" fill="#020504" d="M 661.5,536.5 C 662.833,537.167 662.833,537.167 661.5,536.5 Z"/></g>
<g><path style="opacity:0.008" fill="#050608" d="M 775.5,536.5 C 776.833,537.167 776.833,537.167 775.5,536.5 Z"/></g>
<g><path style="opacity:0.004" fill="#040304" d="M 360.5,538.5 C 359.833,537.167 359.833,537.167 360.5,538.5 Z"/></g>
<g><path style="opacity:0.012" fill="#050502" d="M 776.5,539.5 C 777.833,540.167 777.833,540.167 776.5,539.5 Z"/></g>
<g><path style="opacity:0.004" fill="#595a58" d="M 131.5,541.5 C 132.833,542.167 132.833,542.167 131.5,541.5 Z"/></g>
<g><path style="opacity:0.004" fill="#0f0e0e" d="M 844.5,542.5 C 845.833,543.167 845.833,543.167 844.5,542.5 Z"/></g>
<g><path style="opacity:0.004" fill="#060706" d="M 667.5,543.5 C 668.833,544.167 668.833,544.167 667.5,543.5 Z"/></g>
<g><path style="opacity:0.004" fill="#555554" d="M 916.5,544.5 C 917.833,545.167 917.833,545.167 916.5,544.5 Z"/></g>
<g><path style="opacity:0.004" fill="#070505" d="M 667.5,546.5 C 668.833,547.167 668.833,547.167 667.5,546.5 Z"/></g>
<g><path style="opacity:0.004" fill="#050403" d="M 776.5,546.5 C 777.833,547.167 777.833,547.167 776.5,546.5 Z"/></g>
<g><path style="opacity:0.004" fill="#060705" d="M 352.5,547.5 C 353.833,548.167 353.833,548.167 352.5,547.5 Z"/></g>
<g><path style="opacity:0.004" fill="#0c0d0e" d="M 844.5,547.5 C 845.525,547.897 845.692,548.563 845,549.5C 844.536,548.906 844.369,548.239 844.5,547.5 Z"/></g>
<g><path style="opacity:0.004" fill="#0b0f0f" d="M 844.5,550.5 C 845.833,551.167 845.833,551.167 844.5,550.5 Z"/></g>
<g><path style="opacity:0.012" fill="#020000" d="M 670.5,551.5 C 671.833,552.167 671.833,552.167 670.5,551.5 Z"/></g>
<g><path style="opacity:0.004" fill="#0d0d0e" d="M 844.5,553.5 C 845.833,554.167 845.833,554.167 844.5,553.5 Z"/></g>
<g><path style="opacity:0.004" fill="#828384" d="M 19.5,557.5 C 20.8333,558.167 20.8333,558.167 19.5,557.5 Z"/></g>
<g><path style="opacity:0.008" fill="#0d0d0f" d="M 844.5,558.5 C 845.833,559.167 845.833,559.167 844.5,558.5 Z"/></g>
<g><path style="opacity:0.008" fill="#0b0e0d" d="M 844.5,566.5 C 845.833,567.167 845.833,567.167 844.5,566.5 Z"/></g>
<g><path style="opacity:0.004" fill="#0d0d0d" d="M 844.5,570.5 C 845.833,571.167 845.833,571.167 844.5,570.5 Z"/></g>
<g><path style="opacity:0.004" fill="#030405" d="M 776.5,571.5 C 777.833,572.167 777.833,572.167 776.5,571.5 Z"/></g>
<g><path style="opacity:0.009" fill="#020504" d="M 776.5,574.5 C 777.573,575.251 777.74,576.251 777,577.5C 776.517,576.552 776.351,575.552 776.5,574.5 Z"/></g>
<g><path style="opacity:0.008" fill="#0c0e0f" d="M 844.5,574.5 C 845.833,575.167 845.833,575.167 844.5,574.5 Z"/></g>
<g><path style="opacity:0.004" fill="#0a0c0a" d="M 844.5,578.5 C 845.833,579.167 845.833,579.167 844.5,578.5 Z"/></g>
<g><path style="opacity:0.004" fill="#0b0e09" d="M 329.5,586.5 C 330.833,587.167 330.833,587.167 329.5,586.5 Z"/></g>
<g><path style="opacity:0.01" fill="#0d0f0f" d="M 844.5,589.5 C 845.525,589.897 845.692,590.563 845,591.5C 844.536,590.906 844.369,590.239 844.5,589.5 Z"/></g>
<g><path style="opacity:0.004" fill="#080a07" d="M 328.5,592.5 C 327.833,591.167 327.833,591.167 328.5,592.5 Z"/></g>
<g><path style="opacity:0.02" fill="#030505" d="M 694.5,591.5 C 695.833,592.167 695.833,592.167 694.5,591.5 Z"/></g>
<g><path style="opacity:0.004" fill="#0d0e0e" d="M 844.5,595.5 C 845.833,596.167 845.833,596.167 844.5,595.5 Z"/></g>
<g><path style="opacity:0.004" fill="#0d0c0e" d="M 844.5,598.5 C 845.833,599.167 845.833,599.167 844.5,598.5 Z"/></g>
<g><path style="opacity:0.008" fill="#0b0c0a" d="M 844.5,600.5 C 845.833,601.167 845.833,601.167 844.5,600.5 Z"/></g>
<g><path style="opacity:0.004" fill="#09090a" d="M 698.5,602.5 C 699.833,603.167 699.833,603.167 698.5,602.5 Z"/></g>
<g><path style="opacity:0.004" fill="#040505" d="M 776.5,611.5 C 777.833,612.167 777.833,612.167 776.5,611.5 Z"/></g>
<g><path style="opacity:0.008" fill="#0c0a0d" d="M 844.5,612.5 C 845.833,613.167 845.833,613.167 844.5,612.5 Z"/></g>
<g><path style="opacity:0.008" fill="#0c0c0e" d="M 844.5,614.5 C 845.573,615.251 845.74,616.251 845,617.5C 844.517,616.552 844.351,615.552 844.5,614.5 Z"/></g>
<g><path style="opacity:0.004" fill="#0c0d0c" d="M 844.5,618.5 C 845.833,619.167 845.833,619.167 844.5,618.5 Z"/></g>
<g><path style="opacity:0.004" fill="#0d0c0d" d="M 844.5,622.5 C 845.833,623.167 845.833,623.167 844.5,622.5 Z"/></g>
<g><path style="opacity:0.004" fill="#0c0c0c" d="M 844.5,625.5 C 845.573,626.251 845.74,627.251 845,628.5C 844.517,627.552 844.351,626.552 844.5,625.5 Z"/></g>
<g><path style="opacity:0.008" fill="#040603" d="M 776.5,626.5 C 777.833,627.167 777.833,627.167 776.5,626.5 Z"/></g>
<g><path style="opacity:0.004" fill="#0e0e0e" d="M 844.5,629.5 C 845.833,630.167 845.833,630.167 844.5,629.5 Z"/></g>
<g><path style="opacity:0.004" fill="#171717" d="M 731.5,637.5 C 732.833,638.167 732.833,638.167 731.5,637.5 Z"/></g>
<g><path style="opacity:0.004" fill="#0c0f0c" d="M 693.5,638.5 C 694.833,639.167 694.833,639.167 693.5,638.5 Z"/></g>
<g><path style="opacity:0.008" fill="#0e0c0c" d="M 844.5,637.5 C 845.525,637.897 845.692,638.563 845,639.5C 844.536,638.906 844.369,638.239 844.5,637.5 Z"/></g>
<g><path style="opacity:0.004" fill="#111112" d="M 350.5,643.5 C 351.833,644.167 351.833,644.167 350.5,643.5 Z"/></g>
<g><path style="opacity:0.004" fill="#080708" d="M 670.5,643.5 C 671.833,644.167 671.833,644.167 670.5,643.5 Z"/></g>
<g><path style="opacity:0.012" fill="#0f1110" d="M 356.5,644.5 C 357.833,645.167 357.833,645.167 356.5,644.5 Z"/></g>
<g><path style="opacity:0.016" fill="#0c0b0d" d="M 370.5,646.5 C 370.897,645.475 371.563,645.308 372.5,646C 371.906,646.464 371.239,646.631 370.5,646.5 Z"/></g>
<g><path style="opacity:0.016" fill="#0b0b0a" d="M 374.5,646.5 C 376.288,645.378 378.288,645.211 380.5,646C 378.527,646.495 376.527,646.662 374.5,646.5 Z"/></g>
<g><path style="opacity:0.009" fill="#090909" d="M 382.5,646.5 C 384.628,645.371 386.961,645.204 389.5,646C 387.19,646.497 384.857,646.663 382.5,646.5 Z"/></g>
<g><path style="opacity:0.01" fill="#080808" d="M 390.5,646.5 C 392.288,645.378 394.288,645.211 396.5,646C 394.527,646.495 392.527,646.662 390.5,646.5 Z"/></g>
<g><path style="opacity:0.013" fill="#080708" d="M 398.5,646.5 C 401.976,645.357 405.642,645.19 409.5,646C 405.848,646.499 402.182,646.665 398.5,646.5 Z"/></g>
<g><path style="opacity:0.008" fill="#080706" d="M 410.5,646.5 C 411.946,645.387 413.613,645.22 415.5,646C 413.866,646.494 412.199,646.66 410.5,646.5 Z"/></g>
<g><path style="opacity:0.024" fill="#080507" d="M 418.5,646.5 C 418.897,645.475 419.563,645.308 420.5,646C 419.906,646.464 419.239,646.631 418.5,646.5 Z"/></g>
<g><path style="opacity:0.008" fill="#060507" d="M 422.5,646.5 C 423.251,645.427 424.251,645.26 425.5,646C 424.552,646.483 423.552,646.649 422.5,646.5 Z"/></g>
<g><path style="opacity:0.02" fill="#080808" d="M 426.5,646.5 C 426.897,645.475 427.563,645.308 428.5,646C 427.906,646.464 427.239,646.631 426.5,646.5 Z"/></g>
<g><path style="opacity:0.004" fill="#060507" d="M 429.5,645.5 C 430.833,646.167 430.833,646.167 429.5,645.5 Z"/></g>
<g><path style="opacity:0.016" fill="#070607" d="M 431.5,646.5 C 433.288,645.378 435.288,645.211 437.5,646C 435.527,646.495 433.527,646.662 431.5,646.5 Z"/></g>
<g><path style="opacity:0.024" fill="#050506" d="M 440.5,646.5 C 443.304,645.362 446.304,645.195 449.5,646C 446.386,647.08 443.386,647.246 440.5,646.5 Z"/></g>
<g><path style="opacity:0.004" fill="#060405" d="M 450.5,646.5 C 450.897,645.475 451.563,645.308 452.5,646C 451.906,646.464 451.239,646.631 450.5,646.5 Z"/></g>
<g><path style="opacity:0.012" fill="#050506" d="M 453.5,645.5 C 455.857,645.337 458.19,645.503 460.5,646C 458.034,646.665 455.867,647.165 454,647.5C 453.536,646.906 453.369,646.239 453.5,645.5 Z"/></g>
<g><path style="opacity:0.016" fill="#060504" d="M 461.5,646.5 C 461.897,645.475 462.563,645.308 463.5,646C 462.906,646.464 462.239,646.631 461.5,646.5 Z"/></g>
<g><path style="opacity:0.004" fill="#050605" d="M 464.5,645.5 C 465.833,646.167 465.833,646.167 464.5,645.5 Z"/></g>
<g><path style="opacity:0.027" fill="#060506" d="M 466.5,646.5 C 466.897,645.475 467.563,645.308 468.5,646C 467.906,646.464 467.239,646.631 466.5,646.5 Z"/></g>
<g><path style="opacity:0.008" fill="#030503" d="M 469.5,645.5 C 470.833,646.167 470.833,646.167 469.5,645.5 Z"/></g>
<g><path style="opacity:0.012" fill="#060506" d="M 471.5,646.5 C 473.288,645.378 475.288,645.211 477.5,646C 475.527,646.495 473.527,646.662 471.5,646.5 Z"/></g>
<g><path style="opacity:0.009" fill="#050505" d="M 478.5,646.5 C 480.288,645.378 482.288,645.211 484.5,646C 482.342,646.909 480.342,647.075 478.5,646.5 Z"/></g>
<g><path style="opacity:0.024" fill="#040503" d="M 487.5,646.5 C 486.833,645.167 486.833,645.167 487.5,646.5 Z"/></g>
<g><path style="opacity:0.004" fill="#040505" d="M 491.5,645.5 C 494.001,645.511 494.168,646.178 492,647.5C 491.536,646.906 491.369,646.239 491.5,645.5 Z"/></g>
<g><path style="opacity:0.013" fill="#040404" d="M 494.5,646.5 C 496.628,645.371 498.961,645.204 501.5,646C 499.19,646.497 496.857,646.663 494.5,646.5 Z"/></g>
<g><path style="opacity:0.022" fill="#040404" d="M 502.5,646.5 C 504.288,645.378 506.288,645.211 508.5,646C 506.527,646.495 504.527,646.662 502.5,646.5 Z"/></g>
<g><path style="opacity:0.013" fill="#040304" d="M 509.5,646.5 C 513.311,645.355 517.311,645.188 521.5,646C 517.514,646.499 513.514,646.666 509.5,646.5 Z"/></g>
<g><path style="opacity:0.015" fill="#040303" d="M 522.5,646.5 C 523.946,645.387 525.613,645.22 527.5,646C 525.866,646.494 524.199,646.66 522.5,646.5 Z"/></g>
<g><path style="opacity:0.012" fill="#030403" d="M 530.5,646.5 C 531.251,645.427 532.251,645.26 533.5,646C 532.552,646.483 531.552,646.649 530.5,646.5 Z"/></g>
<g><path style="opacity:0.01" fill="#020304" d="M 534.5,646.5 C 534.897,645.475 535.563,645.308 536.5,646C 535.906,646.464 535.239,646.631 534.5,646.5 Z"/></g>
<g><path style="opacity:0.011" fill="#020303" d="M 538.5,646.5 C 540.288,645.378 542.288,645.211 544.5,646C 542.695,647.441 540.695,647.608 538.5,646.5 Z"/></g>
<g><path style="opacity:0.013" fill="#040404" d="M 545.5,646.5 C 546.251,645.427 547.251,645.26 548.5,646C 547.552,646.483 546.552,646.649 545.5,646.5 Z"/></g>
<g><path style="opacity:0.009" fill="#030302" d="M 572.5,646.5 C 574.966,645.366 577.633,645.199 580.5,646C 577.854,646.497 575.187,646.664 572.5,646.5 Z"/></g>
<g><path style="opacity:0.012" fill="#030202" d="M 581.5,646.5 C 582.601,645.402 583.934,645.235 585.5,646C 584.207,646.49 582.873,646.657 581.5,646.5 Z"/></g>
<g><path style="opacity:0.013" fill="#030302" d="M 586.5,646.5 C 589.64,645.359 592.973,645.192 596.5,646C 593.183,646.498 589.85,646.665 586.5,646.5 Z"/></g>
<g><path style="opacity:0.011" fill="#030303" d="M 597.5,646.5 C 602.65,645.349 607.984,645.183 613.5,646C 608.177,646.499 602.844,646.666 597.5,646.5 Z"/></g>
<g><path style="opacity:0.014" fill="#030403" d="M 614.5,646.5 C 616.288,645.378 618.288,645.211 620.5,646C 618.527,646.495 616.527,646.662 614.5,646.5 Z"/></g>
<g><path style="opacity:0.009" fill="#030402" d="M 621.5,646.5 C 624.304,645.362 627.304,645.195 630.5,646C 627.356,646.878 624.356,647.045 621.5,646.5 Z"/></g>
<g><path style="opacity:0.01" fill="#030303" d="M 631.5,646.5 C 631.897,645.475 632.563,645.308 633.5,646C 632.906,646.464 632.239,646.631 631.5,646.5 Z"/></g>
<g><path style="opacity:0.008" fill="#050404" d="M 634.5,646.5 C 634.897,645.475 635.563,645.308 636.5,646C 635.906,646.464 635.239,646.631 634.5,646.5 Z"/></g>
<g><path style="opacity:0.008" fill="#040203" d="M 637.5,645.5 C 638.833,646.167 638.833,646.167 637.5,645.5 Z"/></g>
<g><path style="opacity:0.011" fill="#040403" d="M 639.5,646.5 C 640.946,645.387 642.613,645.22 644.5,646C 642.866,646.494 641.199,646.66 639.5,646.5 Z"/></g>
<g><path style="opacity:0.01" fill="#040404" d="M 645.5,646.5 C 647.966,645.366 650.633,645.199 653.5,646C 650.854,646.497 648.187,646.664 645.5,646.5 Z"/></g>
<g><path style="opacity:0.006" fill="#050503" d="M 655.5,646.5 C 656.251,645.427 657.251,645.26 658.5,646C 657.552,646.483 656.552,646.649 655.5,646.5 Z"/></g>
<g><path style="opacity:0.004" fill="#3a3b39" d="M 883.5,645.5 C 884.833,646.167 884.833,646.167 883.5,645.5 Z"/></g>
<g><path style="opacity:0.012" fill="#050605" d="M 487.5,646.5 C 487.833,646.5 488.167,646.5 488.5,646.5C 488.315,647.17 487.981,647.17 487.5,646.5 Z"/></g>
<g><path style="opacity:0.004" fill="#020402" d="M 776.5,647.5 C 777.833,648.167 777.833,648.167 776.5,647.5 Z"/></g>
<g><path style="opacity:0.004" fill="#727573" d="M 172.5,656.5 C 173.833,657.167 173.833,657.167 172.5,656.5 Z"/></g>
<g><path style="opacity:0.004" fill="#0c0c0b" d="M 844.5,656.5 C 845.833,657.167 845.833,657.167 844.5,656.5 Z"/></g>
<g><path style="opacity:0.004" fill="#0e0e0d" d="M 844.5,663.5 C 844.897,662.475 845.563,662.308 846.5,663C 845.906,663.464 845.239,663.631 844.5,663.5 Z"/></g>
<g><path style="opacity:0.004" fill="#0c0b0c" d="M 844.5,665.5 C 845.833,666.167 845.833,666.167 844.5,665.5 Z"/></g>
<g><path style="opacity:0.006" fill="#040504" d="M 776.5,671.5 C 777.525,671.897 777.692,672.563 777,673.5C 776.536,672.906 776.369,672.239 776.5,671.5 Z"/></g>
<g><path style="opacity:0.006" fill="#0c0e0f" d="M 844.5,670.5 C 845.573,671.251 845.74,672.251 845,673.5C 844.517,672.552 844.351,671.552 844.5,670.5 Z"/></g>
<g><path style="opacity:0.004" fill="#757675" d="M 988.5,672.5 C 989.833,673.167 989.833,673.167 988.5,672.5 Z"/></g>
<g><path style="opacity:0.004" fill="#040604" d="M 776.5,674.5 C 777.833,675.167 777.833,675.167 776.5,674.5 Z"/></g>
<g><path style="opacity:0.008" fill="#020503" d="M 776.5,679.5 C 777.833,680.167 777.833,680.167 776.5,679.5 Z"/></g>
<g><path style="opacity:0.004" fill="#0e0e0e" d="M 844.5,680.5 C 845.833,681.167 845.833,681.167 844.5,680.5 Z"/></g>
<g><path style="opacity:0.004" fill="#0e0e0e" d="M 844.5,683.5 C 845.833,684.167 845.833,684.167 844.5,683.5 Z"/></g>
<g><path style="opacity:0.004" fill="#050505" d="M 776.5,684.5 C 777.525,684.897 777.692,685.563 777,686.5C 776.536,685.906 776.369,685.239 776.5,684.5 Z"/></g>
<g><path style="opacity:0.004" fill="#0f0d0f" d="M 844.5,685.5 C 845.525,685.897 845.692,686.563 845,687.5C 844.536,686.906 844.369,686.239 844.5,685.5 Z"/></g>
<g><path style="opacity:0.004" fill="#030403" d="M 776.5,687.5 C 777.525,687.897 777.692,688.563 777,689.5C 776.536,688.906 776.369,688.239 776.5,687.5 Z"/></g>
<g><path style="opacity:0.008" fill="#0f100e" d="M 844.5,688.5 C 845.833,689.167 845.833,689.167 844.5,688.5 Z"/></g>
<g><path style="opacity:0.004" fill="#040503" d="M 776.5,690.5 C 777.833,691.167 777.833,691.167 776.5,690.5 Z"/></g>
<g><path style="opacity:0.008" fill="#0f0e0e" d="M 844.5,694.5 C 845.525,694.897 845.692,695.563 845,696.5C 844.536,695.906 844.369,695.239 844.5,694.5 Z"/></g>
<g><path style="opacity:0.004" fill="#878987" d="M 84.5,696.5 C 85.8333,697.167 85.8333,697.167 84.5,696.5 Z"/></g>
<g><path style="opacity:0.008" fill="#0f0d0f" d="M 844.5,697.5 C 845.525,697.897 845.692,698.563 845,699.5C 844.536,698.906 844.369,698.239 844.5,697.5 Z"/></g>
<g><path style="opacity:0.008" fill="#0d100f" d="M 844.5,702.5 C 845.833,703.167 845.833,703.167 844.5,702.5 Z"/></g>
<g><path style="opacity:0.008" fill="#0f100e" d="M 844.5,710.5 C 845.833,711.167 845.833,711.167 844.5,710.5 Z"/></g>
<g><path style="opacity:0.004" fill="#0f0f10" d="M 844.5,713.5 C 845.833,714.167 845.833,714.167 844.5,713.5 Z"/></g>
<g><path style="opacity:0.006" fill="#040303" d="M 776.5,715.5 C 777.525,715.897 777.692,716.563 777,717.5C 776.536,716.906 776.369,716.239 776.5,715.5 Z"/></g>
<g><path style="opacity:0.004" fill="#5a5d5c" d="M 331.5,717.5 C 332.833,718.167 332.833,718.167 331.5,717.5 Z"/></g>
<g><path style="opacity:0.004" fill="#020304" d="M 776.5,719.5 C 777.525,719.897 777.692,720.563 777,721.5C 776.536,720.906 776.369,720.239 776.5,719.5 Z"/></g>
<g><path style="opacity:0.008" fill="#030303" d="M 776.5,723.5 C 777.833,724.167 777.833,724.167 776.5,723.5 Z"/></g>
<g><path style="opacity:0.004" fill="#121211" d="M 844.5,723.5 C 845.833,724.167 845.833,724.167 844.5,723.5 Z"/></g>
<g><path style="opacity:0.004" fill="#888687" d="M 131.5,725.5 C 132.833,726.167 132.833,726.167 131.5,725.5 Z"/></g>
<g><path style="opacity:0.008" fill="#0e1210" d="M 844.5,726.5 C 845.833,727.167 845.833,727.167 844.5,726.5 Z"/></g>
<g><path style="opacity:0.368" fill="#0a0a0a" d="M 843.5,715.5 C 843.351,716.552 843.517,717.552 844,718.5C 844.654,717.304 845.154,717.304 845.5,718.5C 843.862,734.838 842.862,751.171 842.5,767.5C 842.17,749.992 842.503,732.659 843.5,715.5 Z"/></g>
<g><path style="opacity:0.005" fill="#030403" d="M 655.5,735.5 C 656.773,736.077 656.773,736.743 655.5,737.5C 654.537,737.03 654.537,736.363 655.5,735.5 Z"/></g>
<g><path style="opacity:0.013" fill="#030301" d="M 679.5,735.5 C 680.043,735.56 680.376,735.893 680.5,736.5C 679.277,737.614 677.944,737.781 676.5,737C 677.737,736.768 678.737,736.268 679.5,735.5 Z"/></g>
<g><path style="opacity:0.004" fill="#5f6161" d="M 340.5,736.5 C 341.833,737.167 341.833,737.167 340.5,736.5 Z"/></g>
<g><path style="opacity:0.008" fill="#050403" d="M 522.5,736.5 C 523.833,737.167 523.833,737.167 522.5,736.5 Z"/></g>
<g><path style="opacity:0.004" fill="#030605" d="M 524.5,736.5 C 525.833,737.167 525.833,737.167 524.5,736.5 Z"/></g>
<g><path style="opacity:0.008" fill="#040503" d="M 526.5,737.5 C 526.897,736.475 527.563,736.308 528.5,737C 527.906,737.464 527.239,737.631 526.5,737.5 Z"/></g>
<g><path style="opacity:0.01" fill="#050404" d="M 529.5,737.5 C 530.251,736.427 531.251,736.26 532.5,737C 531.552,737.483 530.552,737.649 529.5,737.5 Z"/></g>
<g><path style="opacity:0.004" fill="#020303" d="M 535.5,736.5 C 536.833,737.167 536.833,737.167 535.5,736.5 Z"/></g>
<g><path style="opacity:0.004" fill="#030405" d="M 537.5,736.5 C 538.833,737.167 538.833,737.167 537.5,736.5 Z"/></g>
<g><path style="opacity:0.004" fill="#030201" d="M 539.5,736.5 C 540.833,737.167 540.833,737.167 539.5,736.5 Z"/></g>
<g><path style="opacity:0.008" fill="#040503" d="M 542.5,736.5 C 543.833,737.167 543.833,737.167 542.5,736.5 Z"/></g>
<g><path style="opacity:0.012" fill="#020402" d="M 545.5,737.5 C 545.897,736.475 546.563,736.308 547.5,737C 546.906,737.464 546.239,737.631 545.5,737.5 Z"/></g>
<g><path style="opacity:0.009" fill="#030301" d="M 548.5,737.5 C 549.251,736.427 550.251,736.26 551.5,737C 550.552,737.483 549.552,737.649 548.5,737.5 Z"/></g>
<g><path style="opacity:0.012" fill="#040301" d="M 553.5,736.5 C 554.833,737.167 554.833,737.167 553.5,736.5 Z"/></g>
<g><path style="opacity:0.004" fill="#030401" d="M 556.5,736.5 C 557.833,737.167 557.833,737.167 556.5,736.5 Z"/></g>
<g><path style="opacity:0.016" fill="#000003" d="M 559.5,736.5 C 560.833,737.167 560.833,737.167 559.5,736.5 Z"/></g>
<g><path style="opacity:0.01" fill="#030301" d="M 561.5,737.5 C 561.897,736.475 562.563,736.308 563.5,737C 562.906,737.464 562.239,737.631 561.5,737.5 Z"/></g>
<g><path style="opacity:0.014" fill="#030202" d="M 565.5,737.5 C 565.897,736.475 566.563,736.308 567.5,737C 566.906,737.464 566.239,737.631 565.5,737.5 Z"/></g>
<g><path style="opacity:0.006" fill="#020201" d="M 571.5,737.5 C 572.946,736.387 574.613,736.22 576.5,737C 574.866,737.494 573.199,737.66 571.5,737.5 Z"/></g>
<g><path style="opacity:0.011" fill="#020202" d="M 580.5,737.5 C 581.601,736.402 582.934,736.235 584.5,737C 583.207,737.49 581.873,737.657 580.5,737.5 Z"/></g>
<g><path style="opacity:0.006" fill="#020503" d="M 585.5,737.5 C 585.897,736.475 586.563,736.308 587.5,737C 586.906,737.464 586.239,737.631 585.5,737.5 Z"/></g>
<g><path style="opacity:0.008" fill="#020300" d="M 588.5,736.5 C 589.833,737.167 589.833,737.167 588.5,736.5 Z"/></g>
<g><path style="opacity:0.004" fill="#000301" d="M 590.5,736.5 C 591.833,737.167 591.833,737.167 590.5,736.5 Z"/></g>
<g><path style="opacity:0.008" fill="#030202" d="M 594.5,736.5 C 595.833,737.167 595.833,737.167 594.5,736.5 Z"/></g>
<g><path style="opacity:0.007" fill="#040301" d="M 596.5,737.5 C 597.251,736.427 598.251,736.26 599.5,737C 598.552,737.483 597.552,737.649 596.5,737.5 Z"/></g>
<g><path style="opacity:0.012" fill="#030500" d="M 601.5,736.5 C 602.833,737.167 602.833,737.167 601.5,736.5 Z"/></g>
<g><path style="opacity:0.012" fill="#020301" d="M 606.5,737.5 C 606.897,736.475 607.563,736.308 608.5,737C 607.906,737.464 607.239,737.631 606.5,737.5 Z"/></g>
<g><path style="opacity:0.004" fill="#050401" d="M 615.5,736.5 C 616.833,737.167 616.833,737.167 615.5,736.5 Z"/></g>
<g><path style="opacity:0.007" fill="#030201" d="M 620.5,737.5 C 621.601,736.402 622.934,736.235 624.5,737C 623.207,737.49 621.873,737.657 620.5,737.5 Z"/></g>
<g><path style="opacity:0.004" fill="#030300" d="M 625.5,736.5 C 626.833,737.167 626.833,737.167 625.5,736.5 Z"/></g>
<g><path style="opacity:0.008" fill="#010201" d="M 628.5,737.5 C 628.897,736.475 629.563,736.308 630.5,737C 629.906,737.464 629.239,737.631 628.5,737.5 Z"/></g>
<g><path style="opacity:0.008" fill="#040302" d="M 631.5,737.5 C 632.251,736.427 633.251,736.26 634.5,737C 633.552,737.483 632.552,737.649 631.5,737.5 Z"/></g>
<g><path style="opacity:0.01" fill="#020303" d="M 635.5,737.5 C 635.897,736.475 636.563,736.308 637.5,737C 636.906,737.464 636.239,737.631 635.5,737.5 Z"/></g>
<g><path style="opacity:0.01" fill="#030301" d="M 638.5,737.5 C 638.897,736.475 639.563,736.308 640.5,737C 639.906,737.464 639.239,737.631 638.5,737.5 Z"/></g>
<g><path style="opacity:0.012" fill="#020203" d="M 641.5,737.5 C 643.288,736.378 645.288,736.211 647.5,737C 645.527,737.495 643.527,737.662 641.5,737.5 Z"/></g>
<g><path style="opacity:0.004" fill="#010301" d="M 649.5,736.5 C 650.833,737.167 650.833,737.167 649.5,736.5 Z"/></g>
<g><path style="opacity:0.004" fill="#010301" d="M 652.5,736.5 C 653.833,737.167 653.833,737.167 652.5,736.5 Z"/></g>
<g><path style="opacity:0.008" fill="#020401" d="M 657.5,737.5 C 657.897,736.475 658.563,736.308 659.5,737C 658.906,737.464 658.239,737.631 657.5,737.5 Z"/></g>
<g><path style="opacity:0.005" fill="#040303" d="M 663.5,737.5 C 664.601,736.402 665.934,736.235 667.5,737C 666.207,737.49 664.873,737.657 663.5,737.5 Z"/></g>
<g><path style="opacity:0.008" fill="#040401" d="M 668.5,736.5 C 669.833,737.167 669.833,737.167 668.5,736.5 Z"/></g>
<g><path style="opacity:0.004" fill="#040203" d="M 670.5,737.5 C 670.897,736.475 671.563,736.308 672.5,737C 671.906,737.464 671.239,737.631 670.5,737.5 Z"/></g>
<g><path style="opacity:0.016" fill="#020402" d="M 673.5,736.5 C 674.833,737.167 674.833,737.167 673.5,736.5 Z"/></g>
<g><path style="opacity:0.008" fill="#030202" d="M 681.5,737.5 C 682.601,736.402 683.934,736.235 685.5,737C 684.207,737.49 682.873,737.657 681.5,737.5 Z"/></g>
<g><path style="opacity:0.016" fill="#020403" d="M 686.5,736.5 C 687.833,737.167 687.833,737.167 686.5,736.5 Z"/></g>
<g><path style="opacity:0.008" fill="#040102" d="M 689.5,736.5 C 690.833,737.167 690.833,737.167 689.5,736.5 Z"/></g>
<g><path style="opacity:0.012" fill="#040401" d="M 694.5,736.5 C 695.833,737.167 695.833,737.167 694.5,736.5 Z"/></g>
<g><path style="opacity:0.012" fill="#030501" d="M 697.5,736.5 C 698.833,737.167 698.833,737.167 697.5,736.5 Z"/></g>
<g><path style="opacity:0.01" fill="#030402" d="M 700.5,737.5 C 700.897,736.475 701.563,736.308 702.5,737C 701.906,737.464 701.239,737.631 700.5,737.5 Z"/></g>
<g><path style="opacity:0.008" fill="#040401" d="M 703.5,736.5 C 704.833,737.167 704.833,737.167 703.5,736.5 Z"/></g>
<g><path style="opacity:0.008" fill="#030202" d="M 706.5,737.5 C 707.946,736.387 709.613,736.22 711.5,737C 709.866,737.494 708.199,737.66 706.5,737.5 Z"/></g>
<g><path style="opacity:0.008" fill="#020302" d="M 713.5,736.5 C 714.833,737.167 714.833,737.167 713.5,736.5 Z"/></g>
<g><path style="opacity:0.012" fill="#030401" d="M 716.5,736.5 C 717.833,737.167 717.833,737.167 716.5,736.5 Z"/></g>
<g><path style="opacity:0.006" fill="#030202" d="M 718.5,737.5 C 718.897,736.475 719.563,736.308 720.5,737C 719.906,737.464 719.239,737.631 718.5,737.5 Z"/></g>
<g><path style="opacity:0.012" fill="#030303" d="M 721.5,737.5 C 722.251,736.427 723.251,736.26 724.5,737C 723.552,737.483 722.552,737.649 721.5,737.5 Z"/></g>
<g><path style="opacity:0.008" fill="#020201" d="M 725.5,736.5 C 726.833,737.167 726.833,737.167 725.5,736.5 Z"/></g>
<g><path style="opacity:0.004" fill="#040501" d="M 727.5,736.5 C 728.833,737.167 728.833,737.167 727.5,736.5 Z"/></g>
<g><path style="opacity:0.008" fill="#030201" d="M 729.5,736.5 C 730.833,737.167 730.833,737.167 729.5,736.5 Z"/></g>
<g><path style="opacity:0.016" fill="#060403" d="M 735.5,735.5 C 736.525,735.897 736.692,736.563 736,737.5C 735.536,736.906 735.369,736.239 735.5,735.5 Z"/></g>
<g><path style="opacity:0.008" fill="#030502" d="M 737.5,736.5 C 738.833,737.167 738.833,737.167 737.5,736.5 Z"/></g>
<g><path style="opacity:0.008" fill="#010501" d="M 740.5,736.5 C 741.833,737.167 741.833,737.167 740.5,736.5 Z"/></g>
<g><path style="opacity:0.004" fill="#040302" d="M 743.5,737.5 C 744.251,736.427 745.251,736.26 746.5,737C 745.552,737.483 744.552,737.649 743.5,737.5 Z"/></g>
<g><path style="opacity:0.006" fill="#020202" d="M 748.5,737.5 C 748.897,736.475 749.563,736.308 750.5,737C 749.906,737.464 749.239,737.631 748.5,737.5 Z"/></g>
<g><path style="opacity:0.008" fill="#010201" d="M 751.5,736.5 C 752.833,737.167 752.833,737.167 751.5,736.5 Z"/></g>
<g><path style="opacity:0.008" fill="#030303" d="M 753.5,737.5 C 754.251,736.427 755.251,736.26 756.5,737C 755.552,737.483 754.552,737.649 753.5,737.5 Z"/></g>
<g><path style="opacity:0.008" fill="#030301" d="M 757.5,737.5 C 759.288,736.378 761.288,736.211 763.5,737C 761.527,737.495 759.527,737.662 757.5,737.5 Z"/></g>
<g><path style="opacity:0.005" fill="#010101" d="M 765.5,737.5 C 766.251,736.427 767.251,736.26 768.5,737C 767.552,737.483 766.552,737.649 765.5,737.5 Z"/></g>
<g><path style="opacity:0.008" fill="#030201" d="M 769.5,737.5 C 769.897,736.475 770.563,736.308 771.5,737C 770.906,737.464 770.239,737.631 769.5,737.5 Z"/></g>
<g><path style="opacity:0.008" fill="#000201" d="M 772.5,737.5 C 773.251,736.427 774.251,736.26 775.5,737C 774.552,737.483 773.552,737.649 772.5,737.5 Z"/></g>
<g><path style="opacity:0.004" fill="#0e0e0f" d="M 504.5,738.5 C 505.833,739.167 505.833,739.167 504.5,738.5 Z"/></g>
<g><path style="opacity:0.004" fill="#111312" d="M 496.5,743.5 C 497.833,744.167 497.833,744.167 496.5,743.5 Z"/></g>
<g><path style="opacity:0.012" fill="#0b0e0d" d="M 500.5,744.5 C 499.833,743.167 499.833,743.167 500.5,744.5 Z"/></g>
<g><path style="opacity:0.004" fill="#595e5c" d="M 379.5,749.5 C 380.833,750.167 380.833,750.167 379.5,749.5 Z"/></g>
<g><path style="opacity:0.004" fill="#121713" d="M 489.5,754.5 C 490.833,755.167 490.833,755.167 489.5,754.5 Z"/></g>
<g><path style="opacity:0.012" fill="#151616" d="M 844.5,758.5 C 845.833,759.167 845.833,759.167 844.5,758.5 Z"/></g>
<g><path style="opacity:0.004" fill="#525553" d="M 899.5,765.5 C 900.833,766.167 900.833,766.167 899.5,765.5 Z"/></g>
<g><path style="opacity:0.004" fill="#7a7a7a" d="M 284.5,768.5 C 285.833,769.167 285.833,769.167 284.5,768.5 Z"/></g>
<g><path style="opacity:0.004" fill="#101213" d="M 488.5,776.5 C 489.833,777.167 489.833,777.167 488.5,776.5 Z"/></g>
<g><path style="opacity:0.004" fill="#131312" d="M 489.5,779.5 C 490.833,780.167 490.833,780.167 489.5,779.5 Z"/></g>
<g><path style="opacity:0.004" fill="#161515" d="M 491.5,785.5 C 492.833,786.167 492.833,786.167 491.5,785.5 Z"/></g>
<g><path style="opacity:0.004" fill="#868886" d="M 132.5,792.5 C 133.833,793.167 133.833,793.167 132.5,792.5 Z"/></g>
<g><path style="opacity:0.119" fill="#070707" d="M 580.5,802.5 C 591.167,801.167 601.833,801.167 612.5,802.5C 602.013,802.581 591.346,802.581 580.5,802.5 Z"/></g>
<g><path style="opacity:0.082" fill="#070607" d="M 658.5,802.5 C 672.167,801.167 685.833,801.167 699.5,802.5C 695.723,803.61 691.89,803.61 688,802.5C 685.698,802.6 683.698,803.267 682,804.5C 674.442,802.553 666.609,801.886 658.5,802.5 Z"/></g>
<g><path style="opacity:0.11" fill="#0a090a" d="M 702.5,802.5 C 736.996,801.502 771.663,801.168 806.5,801.5C 803.833,802.167 801.167,802.833 798.5,803.5C 798.167,803.5 797.833,803.5 797.5,803.5C 796.295,802.314 794.961,802.314 793.5,803.5C 769.458,802.733 745.458,802.733 721.5,803.5C 715.355,802.51 709.022,802.177 702.5,802.5 Z"/></g>
<g><path style="opacity:0.012" fill="#131414" d="M 809.5,802.5 C 810.833,803.167 810.833,803.167 809.5,802.5 Z"/></g>
<g><path style="opacity:0.004" fill="#0a0d0b" d="M 537.5,803.5 C 538.833,804.167 538.833,804.167 537.5,803.5 Z"/></g>
<g><path style="opacity:0.004" fill="#080c0c" d="M 550.5,803.5 C 551.833,804.167 551.833,804.167 550.5,803.5 Z"/></g>
<g><path style="opacity:0.006" fill="#0b090a" d="M 557.5,804.5 C 557.897,803.475 558.563,803.308 559.5,804C 558.906,804.464 558.239,804.631 557.5,804.5 Z"/></g>
<g><path style="opacity:0.008" fill="#0a0c0c" d="M 566.5,803.5 C 567.833,804.167 567.833,804.167 566.5,803.5 Z"/></g>
<g><path style="opacity:0.004" fill="#070906" d="M 573.5,803.5 C 574.833,804.167 574.833,804.167 573.5,803.5 Z"/></g>
<g><path style="opacity:0.004" fill="#0a0708" d="M 579.5,803.5 C 580.833,804.167 580.833,804.167 579.5,803.5 Z"/></g>
<g><path style="opacity:0.006" fill="#080809" d="M 581.5,804.5 C 581.897,803.475 582.563,803.308 583.5,804C 582.906,804.464 582.239,804.631 581.5,804.5 Z"/></g>
<g><path style="opacity:0.012" fill="#070809" d="M 590.5,803.5 C 591.833,804.167 591.833,804.167 590.5,803.5 Z"/></g>
<g><path style="opacity:0.006" fill="#080807" d="M 596.5,804.5 C 596.897,803.475 597.563,803.308 598.5,804C 597.906,804.464 597.239,804.631 596.5,804.5 Z"/></g>
<g><path style="opacity:0.008" fill="#0a0a09" d="M 600.5,803.5 C 601.833,804.167 601.833,804.167 600.5,803.5 Z"/></g>
<g><path style="opacity:0.012" fill="#080807" d="M 606.5,803.5 C 607.833,804.167 607.833,804.167 606.5,803.5 Z"/></g>
<g><path style="opacity:0.004" fill="#080609" d="M 614.5,803.5 C 615.833,804.167 615.833,804.167 614.5,803.5 Z"/></g>
<g><path style="opacity:0.004" fill="#080907" d="M 629.5,803.5 C 630.833,804.167 630.833,804.167 629.5,803.5 Z"/></g>
<g><path style="opacity:0.004" fill="#06060a" d="M 638.5,803.5 C 639.833,804.167 639.833,804.167 638.5,803.5 Z"/></g>
<g><path style="opacity:0.004" fill="#060907" d="M 645.5,803.5 C 646.833,804.167 646.833,804.167 645.5,803.5 Z"/></g>
<g><path style="opacity:0.004" fill="#070908" d="M 647.5,803.5 C 648.833,804.167 648.833,804.167 647.5,803.5 Z"/></g>
<g><path style="opacity:0.004" fill="#070b06" d="M 649.5,803.5 C 650.833,804.167 650.833,804.167 649.5,803.5 Z"/></g>
<g><path style="opacity:0.004" fill="#070807" d="M 654.5,803.5 C 655.833,804.167 655.833,804.167 654.5,803.5 Z"/></g>
<g><path style="opacity:0.008" fill="#080a08" d="M 662.5,804.5 C 662.897,803.475 663.563,803.308 664.5,804C 663.906,804.464 663.239,804.631 662.5,804.5 Z"/></g>
<g><path style="opacity:0.008" fill="#070907" d="M 665.5,803.5 C 666.833,804.167 666.833,804.167 665.5,803.5 Z"/></g>
<g><path style="opacity:0.004" fill="#0a0807" d="M 669.5,803.5 C 670.833,804.167 670.833,804.167 669.5,803.5 Z"/></g>
<g><path style="opacity:0.004" fill="#08090a" d="M 678.5,804.5 C 678.897,803.475 679.563,803.308 680.5,804C 679.906,804.464 679.239,804.631 678.5,804.5 Z"/></g>
<g><path style="opacity:0.006" fill="#08080a" d="M 685.5,804.5 C 685.897,803.475 686.563,803.308 687.5,804C 686.906,804.464 686.239,804.631 685.5,804.5 Z"/></g>
<g><path style="opacity:0.008" fill="#0a0a07" d="M 696.5,803.5 C 697.833,804.167 697.833,804.167 696.5,803.5 Z"/></g>
<g><path style="opacity:0.012" fill="#080807" d="M 702.5,803.5 C 703.833,804.167 703.833,804.167 702.5,803.5 Z"/></g>
<g><path style="opacity:0.004" fill="#09080a" d="M 710.5,803.5 C 711.833,804.167 711.833,804.167 710.5,803.5 Z"/></g>
<g><path style="opacity:0.004" fill="#080908" d="M 713.5,803.5 C 714.833,804.167 714.833,804.167 713.5,803.5 Z"/></g>
<g><path style="opacity:0.004" fill="#080909" d="M 718.5,803.5 C 719.833,804.167 719.833,804.167 718.5,803.5 Z"/></g>
<g><path style="opacity:0.008" fill="#0a0d09" d="M 721.5,803.5 C 720.833,804.167 720.833,804.167 721.5,803.5 Z"/></g>
<g><path style="opacity:0.008" fill="#0c0c0c" d="M 736.5,803.5 C 737.833,804.167 737.833,804.167 736.5,803.5 Z"/></g>
<g><path style="opacity:0.008" fill="#0a0b0a" d="M 742.5,803.5 C 743.833,804.167 743.833,804.167 742.5,803.5 Z"/></g>
<g><path style="opacity:0.012" fill="#0c0c0d" d="M 751.5,803.5 C 752.833,804.167 752.833,804.167 751.5,803.5 Z"/></g>
<g><path style="opacity:0.004" fill="#0a0c08" d="M 761.5,803.5 C 762.833,804.167 762.833,804.167 761.5,803.5 Z"/></g>
<g><path style="opacity:0.008" fill="#080a0c" d="M 768.5,803.5 C 769.833,804.167 769.833,804.167 768.5,803.5 Z"/></g>
<g><path style="opacity:0.008" fill="#0c0a0c" d="M 771.5,803.5 C 772.833,804.167 772.833,804.167 771.5,803.5 Z"/></g>
<g><path style="opacity:0.008" fill="#0a0b0a" d="M 773.5,803.5 C 774.833,804.167 774.833,804.167 773.5,803.5 Z"/></g>
<g><path style="opacity:0.004" fill="#0d0e0e" d="M 781.5,803.5 C 782.833,804.167 782.833,804.167 781.5,803.5 Z"/></g>
<g><path style="opacity:0.004" fill="#0d0d0c" d="M 784.5,804.5 C 784.897,803.475 785.563,803.308 786.5,804C 785.906,804.464 785.239,804.631 784.5,804.5 Z"/></g>
<g><path style="opacity:0.004" fill="#0e0f0e" d="M 793.5,803.5 C 792.833,804.167 792.833,804.167 793.5,803.5 Z"/></g>
<g><path style="opacity:0.004" fill="#0d1010" d="M 797.5,803.5 C 796.833,804.167 796.833,804.167 797.5,803.5 Z"/></g>
<g><path style="opacity:0.004" fill="#0d0e0f" d="M 798.5,803.5 C 799.833,804.167 799.833,804.167 798.5,803.5 Z"/></g>
<g><path style="opacity:0.004" fill="#101115" d="M 809.5,803.5 C 808.833,804.167 808.833,804.167 809.5,803.5 Z"/></g>
<g><path style="opacity:0.004" fill="#131516" d="M 512.5,804.5 C 513.833,805.167 513.833,805.167 512.5,804.5 Z"/></g>
<g><path style="opacity:0.004" fill="#0f0e0f" d="M 792.5,804.5 C 791.833,805.167 791.833,805.167 792.5,804.5 Z"/></g>
<g><path style="opacity:0.004" fill="#0d0d0d" d="M 777.5,805.5 C 778.833,806.167 778.833,806.167 777.5,805.5 Z"/></g>
<g><path style="opacity:0.016" fill="#0c0b0a" d="M 628.5,806.5 C 629.833,807.167 629.833,807.167 628.5,806.5 Z"/></g>
<g><path style="opacity:0.004" fill="#737474" d="M 371.5,829.5 C 372.833,830.167 372.833,830.167 371.5,829.5 Z"/></g>
<g><path style="opacity:0.004" fill="#6f706e" d="M 403.5,845.5 C 404.833,846.167 404.833,846.167 403.5,845.5 Z"/></g>
<g><path style="opacity:0.004" fill="#7e8180" d="M 147.5,853.5 C 148.833,854.167 148.833,854.167 147.5,853.5 Z"/></g>
<g><path style="opacity:0.004" fill="#7f7e7d" d="M 108.5,864.5 C 109.833,865.167 109.833,865.167 108.5,864.5 Z"/></g>
<g><path style="opacity:0.004" fill="#818483" d="M 268.5,880.5 C 269.833,881.167 269.833,881.167 268.5,880.5 Z"/></g>
<g><path style="opacity:0.004" fill="#828183" d="M 251.5,885.5 C 252.833,886.167 252.833,886.167 251.5,885.5 Z"/></g>
<g><path style="opacity:0.004" fill="#6a6b6a" d="M 451.5,885.5 C 452.833,886.167 452.833,886.167 451.5,885.5 Z"/></g>
<g><path style="opacity:0.004" fill="#7d7e7c" d="M -0.5,890.5 C 0.833333,891.167 0.833333,891.167 -0.5,890.5 Z"/></g>
<g><path style="opacity:0.004" fill="#787b79" d="M 411.5,901.5 C 412.833,902.167 412.833,902.167 411.5,901.5 Z"/></g>
<g><path style="opacity:0.004" fill="#807f7f" d="M 923.5,901.5 C 924.833,902.167 924.833,902.167 923.5,901.5 Z"/></g>
<g><path style="opacity:0.004" fill="#5a5c5c" d="M 531.5,909.5 C 532.833,910.167 532.833,910.167 531.5,909.5 Z"/></g>
<g><path style="opacity:0.004" fill="#626260" d="M 803.5,909.5 C 804.833,910.167 804.833,910.167 803.5,909.5 Z"/></g>
<g><path style="opacity:0.004" fill="#7d7d7d" d="M 899.5,925.5 C 900.833,926.167 900.833,926.167 899.5,925.5 Z"/></g>
<g><path style="opacity:0.004" fill="#767978" d="M 20.5,928.5 C 21.8333,929.167 21.8333,929.167 20.5,928.5 Z"/></g>
<g><path style="opacity:0.004" fill="#777877" d="M 76.5,928.5 C 77.8333,929.167 77.8333,929.167 76.5,928.5 Z"/></g>
<g><path style="opacity:0.004" fill="#777876" d="M 38.5,931.5 C 39.8333,932.167 39.8333,932.167 38.5,931.5 Z"/></g>
<g><path style="opacity:0.004" fill="#727274" d="M 475.5,933.5 C 476.833,934.167 476.833,934.167 475.5,933.5 Z"/></g>
<g><path style="opacity:0.004" fill="#7e817f" d="M 412.5,944.5 C 413.833,945.167 413.833,945.167 412.5,944.5 Z"/></g>
<g><path style="opacity:0.004" fill="#676867" d="M 740.5,952.5 C 741.833,953.167 741.833,953.167 740.5,952.5 Z"/></g>
<g><path style="opacity:0.004" fill="#777776" d="M 148.5,960.5 C 149.833,961.167 149.833,961.167 148.5,960.5 Z"/></g>
<g><path style="opacity:0.004" fill="#656465" d="M 643.5,965.5 C 644.833,966.167 644.833,966.167 643.5,965.5 Z"/></g>
<g><path style="opacity:0.004" fill="#8e8e8d" d="M 1012.5,968.5 C 1013.83,969.167 1013.83,969.167 1012.5,968.5 Z"/></g>
<g><path style="opacity:0.004" fill="#757575" d="M 83.5,973.5 C 84.8333,974.167 84.8333,974.167 83.5,973.5 Z"/></g>
<g><path style="opacity:0.004" fill="#878a86" d="M 932.5,984.5 C 933.833,985.167 933.833,985.167 932.5,984.5 Z"/></g>
<g><path style="opacity:0.004" fill="#707271" d="M 556.5,992.5 C 557.833,993.167 557.833,993.167 556.5,992.5 Z"/></g>
<g><path style="opacity:0.004" fill="#8d8d8c" d="M 1012.5,1000.5 C 1013.83,1001.17 1013.83,1001.17 1012.5,1000.5 Z"/></g>
<g><path style="opacity:0.004" fill="#7e817f" d="M 467.5,1005.5 C 468.833,1006.17 468.833,1006.17 467.5,1005.5 Z"/></g>
<g><path style="opacity:0.008" fill="#727272" d="M 692.5,1008.5 C 693.833,1009.17 693.833,1009.17 692.5,1008.5 Z"/></g>
<g><path style="opacity:0.004" fill="#848585" d="M 883.5,1021.5 C 884.833,1022.17 884.833,1022.17 883.5,1021.5 Z"/></g>
</svg>
